%TF.GenerationSoftware,KiCad,Pcbnew,8.0.4*%
%TF.CreationDate,2024-12-02T20:50:40-07:00*%
%TF.ProjectId,tree,74726565-2e6b-4696-9361-645f70636258,rev?*%
%TF.SameCoordinates,Original*%
%TF.FileFunction,Legend,Bot*%
%TF.FilePolarity,Positive*%
%FSLAX46Y46*%
G04 Gerber Fmt 4.6, Leading zero omitted, Abs format (unit mm)*
G04 Created by KiCad (PCBNEW 8.0.4) date 2024-12-02 20:50:40*
%MOMM*%
%LPD*%
G01*
G04 APERTURE LIST*
G04 Aperture macros list*
%AMRoundRect*
0 Rectangle with rounded corners*
0 $1 Rounding radius*
0 $2 $3 $4 $5 $6 $7 $8 $9 X,Y pos of 4 corners*
0 Add a 4 corners polygon primitive as box body*
4,1,4,$2,$3,$4,$5,$6,$7,$8,$9,$2,$3,0*
0 Add four circle primitives for the rounded corners*
1,1,$1+$1,$2,$3*
1,1,$1+$1,$4,$5*
1,1,$1+$1,$6,$7*
1,1,$1+$1,$8,$9*
0 Add four rect primitives between the rounded corners*
20,1,$1+$1,$2,$3,$4,$5,0*
20,1,$1+$1,$4,$5,$6,$7,0*
20,1,$1+$1,$6,$7,$8,$9,0*
20,1,$1+$1,$8,$9,$2,$3,0*%
G04 Aperture macros list end*
%ADD10C,0.100000*%
%ADD11C,0.150000*%
%ADD12C,0.120000*%
%ADD13C,5.000000*%
%ADD14C,0.900000*%
%ADD15R,0.700000X1.500000*%
%ADD16R,3.500000X3.300000*%
%ADD17C,10.200000*%
%ADD18R,1.800000X1.800000*%
%ADD19C,1.800000*%
%ADD20RoundRect,0.250000X0.350000X0.450000X-0.350000X0.450000X-0.350000X-0.450000X0.350000X-0.450000X0*%
%ADD21RoundRect,0.250000X-0.450000X0.350000X-0.450000X-0.350000X0.450000X-0.350000X0.450000X0.350000X0*%
G04 APERTURE END LIST*
D10*
X160300000Y-102800000D02*
X160700000Y-102800000D01*
X160700000Y-102400000D01*
X160300000Y-102400000D01*
X160300000Y-102800000D01*
X160800000Y-102100000D02*
X161100000Y-102100000D01*
X160700000Y-100700000D02*
X159400000Y-100700000D01*
X160700000Y-100900000D02*
X160700000Y-100700000D01*
X159400000Y-100700000D02*
X159400000Y-100900000D01*
X159600000Y-100000000D02*
G75*
G02*
X160450000Y-100000000I425000J0D01*
G01*
X159400000Y-100900000D02*
X160700000Y-100900000D01*
X159741421Y-103300000D02*
G75*
G02*
X159458579Y-103300000I-141421J0D01*
G01*
X159458579Y-103300000D02*
G75*
G02*
X159741421Y-103300000I141421J0D01*
G01*
X160500000Y-102400000D02*
X160500000Y-100900000D01*
X159600000Y-100900000D02*
X159600000Y-103000000D01*
X160600000Y-102600000D02*
G75*
G02*
X160400000Y-102600000I-100000J0D01*
G01*
X160400000Y-102600000D02*
G75*
G02*
X160600000Y-102600000I100000J0D01*
G01*
X159600000Y-100700000D02*
X160450000Y-100700000D01*
X160450000Y-100000000D01*
X159600000Y-100000000D01*
X159600000Y-100700000D01*
X159025000Y-102100000D02*
X159375000Y-102100000D01*
X159900000Y-103300000D02*
G75*
G02*
X159300000Y-103300000I-300000J0D01*
G01*
X159300000Y-103300000D02*
G75*
G02*
X159900000Y-103300000I300000J0D01*
G01*
X159200000Y-102300000D02*
X159200000Y-101900000D01*
X155425000Y-76000000D02*
X155825000Y-76000000D01*
X155825000Y-76400000D01*
X155425000Y-76400000D01*
X155425000Y-76000000D01*
X155025000Y-75700000D02*
X155325000Y-75700000D01*
X156725000Y-74300000D02*
X155425000Y-74300000D01*
X155425000Y-74300000D02*
X155425000Y-74500000D01*
X156725000Y-74500000D02*
X156725000Y-74300000D01*
X155675000Y-73600000D02*
G75*
G02*
X156525000Y-73600000I425000J0D01*
G01*
X155425000Y-74500000D02*
X156725000Y-74500000D01*
X156666421Y-76900000D02*
G75*
G02*
X156383579Y-76900000I-141421J0D01*
G01*
X156383579Y-76900000D02*
G75*
G02*
X156666421Y-76900000I141421J0D01*
G01*
X155625000Y-74500000D02*
X155625000Y-76000000D01*
X156525000Y-76600000D02*
X156525000Y-74500000D01*
X155725000Y-76200000D02*
G75*
G02*
X155525000Y-76200000I-100000J0D01*
G01*
X155525000Y-76200000D02*
G75*
G02*
X155725000Y-76200000I100000J0D01*
G01*
X155675000Y-73600000D02*
X156525000Y-73600000D01*
X156525000Y-74300000D01*
X155675000Y-74300000D01*
X155675000Y-73600000D01*
X156750000Y-75700000D02*
X157100000Y-75700000D01*
X156825000Y-76900000D02*
G75*
G02*
X156225000Y-76900000I-300000J0D01*
G01*
X156225000Y-76900000D02*
G75*
G02*
X156825000Y-76900000I300000J0D01*
G01*
X156925000Y-75500000D02*
X156925000Y-75900000D01*
X141500000Y-86900000D02*
X141500000Y-87300000D01*
X141325000Y-87100000D02*
X141675000Y-87100000D01*
X139600000Y-87100000D02*
X139900000Y-87100000D01*
X141241421Y-88300000D02*
G75*
G02*
X140958579Y-88300000I-141421J0D01*
G01*
X140958579Y-88300000D02*
G75*
G02*
X141241421Y-88300000I141421J0D01*
G01*
X140300000Y-87600000D02*
G75*
G02*
X140100000Y-87600000I-100000J0D01*
G01*
X140100000Y-87600000D02*
G75*
G02*
X140300000Y-87600000I100000J0D01*
G01*
X141400000Y-88300000D02*
G75*
G02*
X140800000Y-88300000I-300000J0D01*
G01*
X140800000Y-88300000D02*
G75*
G02*
X141400000Y-88300000I300000J0D01*
G01*
X140000000Y-87400000D02*
X140400000Y-87400000D01*
X140400000Y-87800000D01*
X140000000Y-87800000D01*
X140000000Y-87400000D01*
X140250000Y-85000000D02*
G75*
G02*
X141100000Y-85000000I425000J0D01*
G01*
X140250000Y-85000000D02*
X141100000Y-85000000D01*
X141100000Y-85700000D01*
X140250000Y-85700000D01*
X140250000Y-85000000D01*
X140000000Y-85700000D02*
X140000000Y-85900000D01*
X141300000Y-85700000D02*
X140000000Y-85700000D01*
X141300000Y-85900000D02*
X141300000Y-85700000D01*
X140000000Y-85900000D02*
X141300000Y-85900000D01*
X141100000Y-88000000D02*
X141100000Y-85900000D01*
X140200000Y-85900000D02*
X140200000Y-87400000D01*
D11*
X134283332Y-112337200D02*
X134140475Y-112384819D01*
X134140475Y-112384819D02*
X133902380Y-112384819D01*
X133902380Y-112384819D02*
X133807142Y-112337200D01*
X133807142Y-112337200D02*
X133759523Y-112289580D01*
X133759523Y-112289580D02*
X133711904Y-112194342D01*
X133711904Y-112194342D02*
X133711904Y-112099104D01*
X133711904Y-112099104D02*
X133759523Y-112003866D01*
X133759523Y-112003866D02*
X133807142Y-111956247D01*
X133807142Y-111956247D02*
X133902380Y-111908628D01*
X133902380Y-111908628D02*
X134092856Y-111861009D01*
X134092856Y-111861009D02*
X134188094Y-111813390D01*
X134188094Y-111813390D02*
X134235713Y-111765771D01*
X134235713Y-111765771D02*
X134283332Y-111670533D01*
X134283332Y-111670533D02*
X134283332Y-111575295D01*
X134283332Y-111575295D02*
X134235713Y-111480057D01*
X134235713Y-111480057D02*
X134188094Y-111432438D01*
X134188094Y-111432438D02*
X134092856Y-111384819D01*
X134092856Y-111384819D02*
X133854761Y-111384819D01*
X133854761Y-111384819D02*
X133711904Y-111432438D01*
X133378570Y-111384819D02*
X133140475Y-112384819D01*
X133140475Y-112384819D02*
X132949999Y-111670533D01*
X132949999Y-111670533D02*
X132759523Y-112384819D01*
X132759523Y-112384819D02*
X132521428Y-111384819D01*
X131616666Y-112384819D02*
X132188094Y-112384819D01*
X131902380Y-112384819D02*
X131902380Y-111384819D01*
X131902380Y-111384819D02*
X131997618Y-111527676D01*
X131997618Y-111527676D02*
X132092856Y-111622914D01*
X132092856Y-111622914D02*
X132188094Y-111670533D01*
X147637659Y-116329216D02*
X147494802Y-116376835D01*
X147494802Y-116376835D02*
X147447183Y-116424454D01*
X147447183Y-116424454D02*
X147399564Y-116519692D01*
X147399564Y-116519692D02*
X147399564Y-116662549D01*
X147399564Y-116662549D02*
X147447183Y-116757787D01*
X147447183Y-116757787D02*
X147494802Y-116805407D01*
X147494802Y-116805407D02*
X147590040Y-116853026D01*
X147590040Y-116853026D02*
X147970992Y-116853026D01*
X147970992Y-116853026D02*
X147970992Y-115853026D01*
X147970992Y-115853026D02*
X147637659Y-115853026D01*
X147637659Y-115853026D02*
X147542421Y-115900645D01*
X147542421Y-115900645D02*
X147494802Y-115948264D01*
X147494802Y-115948264D02*
X147447183Y-116043502D01*
X147447183Y-116043502D02*
X147447183Y-116138740D01*
X147447183Y-116138740D02*
X147494802Y-116233978D01*
X147494802Y-116233978D02*
X147542421Y-116281597D01*
X147542421Y-116281597D02*
X147637659Y-116329216D01*
X147637659Y-116329216D02*
X147970992Y-116329216D01*
X147113849Y-115853026D02*
X146542421Y-115853026D01*
X146828135Y-116853026D02*
X146828135Y-115853026D01*
X145685278Y-116853026D02*
X146256706Y-116853026D01*
X145970992Y-116853026D02*
X145970992Y-115853026D01*
X145970992Y-115853026D02*
X146066230Y-115995883D01*
X146066230Y-115995883D02*
X146161468Y-116091121D01*
X146161468Y-116091121D02*
X146256706Y-116138740D01*
X153008094Y-75914819D02*
X153008094Y-74914819D01*
X153008094Y-74914819D02*
X152769999Y-74914819D01*
X152769999Y-74914819D02*
X152627142Y-74962438D01*
X152627142Y-74962438D02*
X152531904Y-75057676D01*
X152531904Y-75057676D02*
X152484285Y-75152914D01*
X152484285Y-75152914D02*
X152436666Y-75343390D01*
X152436666Y-75343390D02*
X152436666Y-75486247D01*
X152436666Y-75486247D02*
X152484285Y-75676723D01*
X152484285Y-75676723D02*
X152531904Y-75771961D01*
X152531904Y-75771961D02*
X152627142Y-75867200D01*
X152627142Y-75867200D02*
X152769999Y-75914819D01*
X152769999Y-75914819D02*
X153008094Y-75914819D01*
X152103332Y-74914819D02*
X151484285Y-74914819D01*
X151484285Y-74914819D02*
X151817618Y-75295771D01*
X151817618Y-75295771D02*
X151674761Y-75295771D01*
X151674761Y-75295771D02*
X151579523Y-75343390D01*
X151579523Y-75343390D02*
X151531904Y-75391009D01*
X151531904Y-75391009D02*
X151484285Y-75486247D01*
X151484285Y-75486247D02*
X151484285Y-75724342D01*
X151484285Y-75724342D02*
X151531904Y-75819580D01*
X151531904Y-75819580D02*
X151579523Y-75867200D01*
X151579523Y-75867200D02*
X151674761Y-75914819D01*
X151674761Y-75914819D02*
X151960475Y-75914819D01*
X151960475Y-75914819D02*
X152055713Y-75867200D01*
X152055713Y-75867200D02*
X152103332Y-75819580D01*
X149366666Y-80404819D02*
X149699999Y-79928628D01*
X149938094Y-80404819D02*
X149938094Y-79404819D01*
X149938094Y-79404819D02*
X149557142Y-79404819D01*
X149557142Y-79404819D02*
X149461904Y-79452438D01*
X149461904Y-79452438D02*
X149414285Y-79500057D01*
X149414285Y-79500057D02*
X149366666Y-79595295D01*
X149366666Y-79595295D02*
X149366666Y-79738152D01*
X149366666Y-79738152D02*
X149414285Y-79833390D01*
X149414285Y-79833390D02*
X149461904Y-79881009D01*
X149461904Y-79881009D02*
X149557142Y-79928628D01*
X149557142Y-79928628D02*
X149938094Y-79928628D01*
X149033332Y-79404819D02*
X148414285Y-79404819D01*
X148414285Y-79404819D02*
X148747618Y-79785771D01*
X148747618Y-79785771D02*
X148604761Y-79785771D01*
X148604761Y-79785771D02*
X148509523Y-79833390D01*
X148509523Y-79833390D02*
X148461904Y-79881009D01*
X148461904Y-79881009D02*
X148414285Y-79976247D01*
X148414285Y-79976247D02*
X148414285Y-80214342D01*
X148414285Y-80214342D02*
X148461904Y-80309580D01*
X148461904Y-80309580D02*
X148509523Y-80357200D01*
X148509523Y-80357200D02*
X148604761Y-80404819D01*
X148604761Y-80404819D02*
X148890475Y-80404819D01*
X148890475Y-80404819D02*
X148985713Y-80357200D01*
X148985713Y-80357200D02*
X149033332Y-80309580D01*
X134104819Y-93033333D02*
X133628628Y-92700000D01*
X134104819Y-92461905D02*
X133104819Y-92461905D01*
X133104819Y-92461905D02*
X133104819Y-92842857D01*
X133104819Y-92842857D02*
X133152438Y-92938095D01*
X133152438Y-92938095D02*
X133200057Y-92985714D01*
X133200057Y-92985714D02*
X133295295Y-93033333D01*
X133295295Y-93033333D02*
X133438152Y-93033333D01*
X133438152Y-93033333D02*
X133533390Y-92985714D01*
X133533390Y-92985714D02*
X133581009Y-92938095D01*
X133581009Y-92938095D02*
X133628628Y-92842857D01*
X133628628Y-92842857D02*
X133628628Y-92461905D01*
X133200057Y-93414286D02*
X133152438Y-93461905D01*
X133152438Y-93461905D02*
X133104819Y-93557143D01*
X133104819Y-93557143D02*
X133104819Y-93795238D01*
X133104819Y-93795238D02*
X133152438Y-93890476D01*
X133152438Y-93890476D02*
X133200057Y-93938095D01*
X133200057Y-93938095D02*
X133295295Y-93985714D01*
X133295295Y-93985714D02*
X133390533Y-93985714D01*
X133390533Y-93985714D02*
X133533390Y-93938095D01*
X133533390Y-93938095D02*
X134104819Y-93366667D01*
X134104819Y-93366667D02*
X134104819Y-93985714D01*
X137168094Y-90114819D02*
X137168094Y-89114819D01*
X137168094Y-89114819D02*
X136929999Y-89114819D01*
X136929999Y-89114819D02*
X136787142Y-89162438D01*
X136787142Y-89162438D02*
X136691904Y-89257676D01*
X136691904Y-89257676D02*
X136644285Y-89352914D01*
X136644285Y-89352914D02*
X136596666Y-89543390D01*
X136596666Y-89543390D02*
X136596666Y-89686247D01*
X136596666Y-89686247D02*
X136644285Y-89876723D01*
X136644285Y-89876723D02*
X136691904Y-89971961D01*
X136691904Y-89971961D02*
X136787142Y-90067200D01*
X136787142Y-90067200D02*
X136929999Y-90114819D01*
X136929999Y-90114819D02*
X137168094Y-90114819D01*
X136215713Y-89210057D02*
X136168094Y-89162438D01*
X136168094Y-89162438D02*
X136072856Y-89114819D01*
X136072856Y-89114819D02*
X135834761Y-89114819D01*
X135834761Y-89114819D02*
X135739523Y-89162438D01*
X135739523Y-89162438D02*
X135691904Y-89210057D01*
X135691904Y-89210057D02*
X135644285Y-89305295D01*
X135644285Y-89305295D02*
X135644285Y-89400533D01*
X135644285Y-89400533D02*
X135691904Y-89543390D01*
X135691904Y-89543390D02*
X136263332Y-90114819D01*
X136263332Y-90114819D02*
X135644285Y-90114819D01*
X163166666Y-111204819D02*
X163499999Y-110728628D01*
X163738094Y-111204819D02*
X163738094Y-110204819D01*
X163738094Y-110204819D02*
X163357142Y-110204819D01*
X163357142Y-110204819D02*
X163261904Y-110252438D01*
X163261904Y-110252438D02*
X163214285Y-110300057D01*
X163214285Y-110300057D02*
X163166666Y-110395295D01*
X163166666Y-110395295D02*
X163166666Y-110538152D01*
X163166666Y-110538152D02*
X163214285Y-110633390D01*
X163214285Y-110633390D02*
X163261904Y-110681009D01*
X163261904Y-110681009D02*
X163357142Y-110728628D01*
X163357142Y-110728628D02*
X163738094Y-110728628D01*
X162214285Y-111204819D02*
X162785713Y-111204819D01*
X162499999Y-111204819D02*
X162499999Y-110204819D01*
X162499999Y-110204819D02*
X162595237Y-110347676D01*
X162595237Y-110347676D02*
X162690475Y-110442914D01*
X162690475Y-110442914D02*
X162785713Y-110490533D01*
X161408094Y-105694819D02*
X161408094Y-104694819D01*
X161408094Y-104694819D02*
X161169999Y-104694819D01*
X161169999Y-104694819D02*
X161027142Y-104742438D01*
X161027142Y-104742438D02*
X160931904Y-104837676D01*
X160931904Y-104837676D02*
X160884285Y-104932914D01*
X160884285Y-104932914D02*
X160836666Y-105123390D01*
X160836666Y-105123390D02*
X160836666Y-105266247D01*
X160836666Y-105266247D02*
X160884285Y-105456723D01*
X160884285Y-105456723D02*
X160931904Y-105551961D01*
X160931904Y-105551961D02*
X161027142Y-105647200D01*
X161027142Y-105647200D02*
X161169999Y-105694819D01*
X161169999Y-105694819D02*
X161408094Y-105694819D01*
X159884285Y-105694819D02*
X160455713Y-105694819D01*
X160169999Y-105694819D02*
X160169999Y-104694819D01*
X160169999Y-104694819D02*
X160265237Y-104837676D01*
X160265237Y-104837676D02*
X160360475Y-104932914D01*
X160360475Y-104932914D02*
X160455713Y-104980533D01*
D12*
%TO.C,SW1*%
X136400000Y-115850000D02*
X136400000Y-115060000D01*
X130100000Y-116860000D02*
X135800000Y-116860000D01*
X132850000Y-114010000D02*
X134550000Y-114010000D01*
X134350000Y-118150000D02*
X134350000Y-116860000D01*
X134150000Y-118360000D02*
X134350000Y-118150000D01*
X133250000Y-118360000D02*
X134150000Y-118360000D01*
X133250000Y-118360000D02*
X133050000Y-118150000D01*
X133050000Y-116860000D02*
X133050000Y-118150000D01*
X131350000Y-114010000D02*
X131550000Y-114010000D01*
X129500000Y-115060000D02*
X129500000Y-115850000D01*
%TO.C,BT1*%
X140101945Y-104298207D02*
X140101945Y-106398207D01*
X140101945Y-111848207D02*
X140101945Y-110398207D01*
X142701945Y-114448207D02*
X140101945Y-111848207D01*
X142701945Y-115248207D02*
X142701945Y-114448207D01*
X151001945Y-114448207D02*
X151001945Y-115248207D01*
X151001945Y-115248207D02*
X142701945Y-115248207D01*
X153601945Y-104298207D02*
X153601945Y-106398207D01*
X153601945Y-110398207D02*
X153601945Y-111848207D01*
X153601945Y-111848207D02*
X151001945Y-114448207D01*
X140101945Y-104348207D02*
G75*
G02*
X141551945Y-102798207I1499999J50001D01*
G01*
X141437330Y-102814047D02*
G75*
G02*
X142351945Y-103198207I124615J-984161D01*
G01*
X151351945Y-103198207D02*
G75*
G02*
X152266560Y-102814047I790000J-600000D01*
G01*
X152151945Y-102798207D02*
G75*
G02*
X153601945Y-104348207I-50000J-1500000D01*
G01*
%TO.C,D3*%
X150560000Y-71940000D02*
X150560000Y-72120000D01*
X150560000Y-74280000D02*
X150560000Y-74460000D01*
X150680000Y-71940000D02*
X150680000Y-72120000D01*
X150680000Y-74280000D02*
X150680000Y-74460000D01*
X150800000Y-71940000D02*
X150800000Y-72120000D01*
X150800000Y-74280000D02*
X150800000Y-74460000D01*
X153980000Y-71940000D02*
X150560000Y-71940000D01*
X153980000Y-71940000D02*
X153980000Y-72105000D01*
X153980000Y-74295000D02*
X153980000Y-74460000D01*
X153980000Y-74460000D02*
X150560000Y-74460000D01*
%TO.C,R3*%
X148972936Y-80865000D02*
X149427064Y-80865000D01*
X148972936Y-82335000D02*
X149427064Y-82335000D01*
%TO.C,R2*%
X134565000Y-93427064D02*
X134565000Y-92972936D01*
X136035000Y-93427064D02*
X136035000Y-92972936D01*
%TO.C,D2*%
X134720000Y-86140000D02*
X134720000Y-86320000D01*
X134720000Y-88480000D02*
X134720000Y-88660000D01*
X134840000Y-86140000D02*
X134840000Y-86320000D01*
X134840000Y-88480000D02*
X134840000Y-88660000D01*
X134960000Y-86140000D02*
X134960000Y-86320000D01*
X134960000Y-88480000D02*
X134960000Y-88660000D01*
X138140000Y-86140000D02*
X134720000Y-86140000D01*
X138140000Y-86140000D02*
X138140000Y-86305000D01*
X138140000Y-88495000D02*
X138140000Y-88660000D01*
X138140000Y-88660000D02*
X134720000Y-88660000D01*
%TO.C,R1*%
X162772936Y-111665000D02*
X163227064Y-111665000D01*
X162772936Y-113135000D02*
X163227064Y-113135000D01*
%TO.C,D1*%
X158960000Y-106240000D02*
X162380000Y-106240000D01*
X158960000Y-106405000D02*
X158960000Y-106240000D01*
X158960000Y-108760000D02*
X158960000Y-108595000D01*
X158960000Y-108760000D02*
X162380000Y-108760000D01*
X162140000Y-106420000D02*
X162140000Y-106240000D01*
X162140000Y-108760000D02*
X162140000Y-108580000D01*
X162260000Y-106420000D02*
X162260000Y-106240000D01*
X162260000Y-108760000D02*
X162260000Y-108580000D01*
X162380000Y-106420000D02*
X162380000Y-106240000D01*
X162380000Y-108760000D02*
X162380000Y-108580000D01*
%TD*%
%LPC*%
D10*
X155000000Y-115600000D02*
X166100000Y-115600000D01*
X166100000Y-118400000D01*
X155000000Y-118400000D01*
X155000000Y-115600000D01*
G36*
X155000000Y-115600000D02*
G01*
X166100000Y-115600000D01*
X166100000Y-118400000D01*
X155000000Y-118400000D01*
X155000000Y-115600000D01*
G37*
D13*
%TO.C,*%
X146100000Y-60000000D03*
%TD*%
D14*
%TO.C,SW1*%
X134450000Y-115460000D03*
X131450000Y-115460000D03*
D15*
X135200000Y-113700000D03*
X132200000Y-113700000D03*
X130700000Y-113700000D03*
%TD*%
D16*
%TO.C,BT1*%
X138951945Y-108398207D03*
X154751945Y-108398207D03*
D17*
X146851945Y-108398207D03*
%TD*%
D18*
%TO.C,D3*%
X151000000Y-73200000D03*
D19*
X153540000Y-73200000D03*
%TD*%
D20*
%TO.C,R3*%
X150200000Y-81600000D03*
X148200000Y-81600000D03*
%TD*%
D21*
%TO.C,R2*%
X135300000Y-92200000D03*
X135300000Y-94200000D03*
%TD*%
D18*
%TO.C,D2*%
X135160000Y-87400000D03*
D19*
X137700000Y-87400000D03*
%TD*%
D20*
%TO.C,R1*%
X164000000Y-112400000D03*
X162000000Y-112400000D03*
%TD*%
D18*
%TO.C,D1*%
X161940000Y-107500000D03*
D19*
X159400000Y-107500000D03*
%TD*%
%LPD*%
M02*
