%TF.GenerationSoftware,KiCad,Pcbnew,8.0.4*%
%TF.CreationDate,2024-12-02T20:50:40-07:00*%
%TF.ProjectId,tree,74726565-2e6b-4696-9361-645f70636258,rev?*%
%TF.SameCoordinates,Original*%
%TF.FileFunction,Legend,Top*%
%TF.FilePolarity,Positive*%
%FSLAX46Y46*%
G04 Gerber Fmt 4.6, Leading zero omitted, Abs format (unit mm)*
G04 Created by KiCad (PCBNEW 8.0.4) date 2024-12-02 20:50:40*
%MOMM*%
%LPD*%
G01*
G04 APERTURE LIST*
%ADD10C,0.180000*%
%ADD11C,0.390000*%
%ADD12C,5.000000*%
%ADD13C,0.900000*%
%ADD14R,1.800000X1.800000*%
%ADD15C,1.800000*%
G04 APERTURE END LIST*
D10*
X136815388Y-95917072D02*
X136794183Y-96095997D01*
X143954398Y-94006590D02*
X144047903Y-93850032D01*
X143820023Y-97667138D02*
X143799557Y-97628229D01*
X149783359Y-114973219D02*
X149801714Y-114969607D01*
X128406528Y-120279894D02*
X128448926Y-120296482D01*
X127740155Y-120463556D02*
X127776527Y-120450343D01*
X144344902Y-114954276D02*
X144369947Y-114942468D01*
X148564329Y-95727946D02*
X148554267Y-95704640D01*
X151269350Y-93919447D02*
X151225896Y-93842045D01*
X146517460Y-97261115D02*
X146521712Y-97317944D01*
X158093120Y-112030715D02*
X158142522Y-112021747D01*
X161510384Y-93141212D02*
X161465059Y-93171308D01*
X148592866Y-95834498D02*
X148587497Y-95805786D01*
X149112233Y-77991658D02*
X149054369Y-77978511D01*
X150174051Y-78144160D02*
X150132427Y-78164601D01*
X146153214Y-90835381D02*
X146146129Y-90860792D01*
X149820331Y-114966891D02*
X149839229Y-114965134D01*
X149952545Y-114974643D02*
X149974392Y-114980083D01*
X144997952Y-115075061D02*
X145046869Y-115080157D01*
X150442790Y-115160686D02*
X150465727Y-115162412D01*
X142643518Y-94680455D02*
X142703563Y-94684220D01*
X134822134Y-93899340D02*
X134877641Y-93861912D01*
X156092686Y-78046986D02*
X156065979Y-78043559D01*
X124028646Y-120262225D02*
X124072287Y-120241165D01*
X156981872Y-112745091D02*
X158093120Y-112506966D01*
X135157226Y-93726918D02*
X135192642Y-93716369D01*
X142473192Y-94441432D02*
X142462136Y-94478335D01*
X141789620Y-74708149D02*
X141710243Y-75025648D01*
X146244925Y-91174286D02*
X146282989Y-91241807D01*
X150962544Y-93162169D02*
X150921074Y-93092320D01*
X151213916Y-94717694D02*
X151278046Y-94703240D01*
X149839229Y-114965134D02*
X149862516Y-114964341D01*
X161950624Y-91791654D02*
X161935062Y-91844971D01*
X146514159Y-97418119D02*
X146502550Y-97461368D01*
X144917124Y-93118779D02*
X144999695Y-93094155D01*
X152255380Y-93840902D02*
X152259626Y-93945537D01*
X138441872Y-96317957D02*
X138270354Y-96918270D01*
X144153336Y-93700876D02*
X144270042Y-93561492D01*
X144695908Y-114971492D02*
X144733294Y-114993883D01*
X143511417Y-92999062D02*
X143499986Y-92993241D01*
X132354681Y-119856915D02*
X132354681Y-119221916D01*
X150465727Y-115162412D02*
X150488999Y-115162770D01*
X145994306Y-97605996D02*
X145924189Y-97585390D01*
X150583748Y-93075944D02*
X150547080Y-93118911D01*
X147712485Y-93511939D02*
X147777252Y-93480577D01*
X150971526Y-78238453D02*
X150936024Y-78222997D01*
X143761974Y-97530637D02*
X143729018Y-97409906D01*
X153413983Y-78170031D02*
X153362792Y-78167160D01*
X148477810Y-93143258D02*
X148549331Y-93123866D01*
X146187905Y-91057696D02*
X146213306Y-91113009D01*
X146722243Y-94003582D02*
X146777913Y-93982087D01*
X139079372Y-115893250D02*
X139115056Y-115860341D01*
X143049837Y-93406275D02*
X143028864Y-93505837D01*
X147411250Y-92031707D02*
X148363751Y-92746082D01*
X136794183Y-96095997D02*
X136781023Y-96264890D01*
X151278046Y-94703240D02*
X151334602Y-94687148D01*
X144211717Y-114972056D02*
X144239182Y-114973570D01*
X152332491Y-93619204D02*
X152253115Y-93619204D01*
X155697998Y-78020754D02*
X155663080Y-78045799D01*
X125183972Y-120399198D02*
X125283421Y-120386455D01*
X136885750Y-95545617D02*
X136845591Y-95732238D01*
X149597580Y-78174843D02*
X149543881Y-78154703D01*
X144183980Y-114968265D02*
X144211717Y-114972056D01*
X149963174Y-97582923D02*
X149899933Y-97546547D01*
X152989254Y-94650087D02*
X152925316Y-94627421D01*
X139688572Y-95422695D02*
X139621716Y-95422539D01*
X148152269Y-97785995D02*
X148099612Y-97809817D01*
X146143884Y-90890485D02*
X146146710Y-90924742D01*
X161020627Y-93883279D02*
X161014515Y-93939474D01*
X156175008Y-78042572D02*
X156147271Y-78046363D01*
X143964681Y-97789108D02*
X143944279Y-97779804D01*
X154048584Y-78235841D02*
X154010011Y-78239481D01*
X150536641Y-115158978D02*
X150594816Y-115148682D01*
X156870854Y-77803768D02*
X156870854Y-77645017D01*
X151141875Y-97746704D02*
X151062499Y-97667330D01*
X128228294Y-120251331D02*
X128251581Y-120250538D01*
X144369947Y-114942468D02*
X144394297Y-114927607D01*
X153907608Y-94681932D02*
X153739916Y-94703776D01*
X144700000Y-76600000D02*
X143138992Y-75978149D01*
X148602466Y-95964154D02*
X148601856Y-95929445D01*
X149089207Y-96339934D02*
X149036372Y-96283699D01*
X146429849Y-115165004D02*
X146515319Y-115157084D01*
X125594343Y-120390729D02*
X125845156Y-120429408D01*
X147093750Y-97746697D02*
X147093750Y-97826071D01*
X149182241Y-96457763D02*
X149137676Y-96398043D01*
X154305176Y-78074146D02*
X154278672Y-78110301D01*
X148363751Y-92746082D02*
X147331876Y-93222332D01*
X156870854Y-77645017D02*
X156791480Y-77645017D01*
X144950067Y-115067631D02*
X144997952Y-115075061D01*
X133115685Y-93093094D02*
X133042283Y-93063010D01*
X134591938Y-93436182D02*
X134533097Y-93518818D01*
X139621716Y-95422539D02*
X139553441Y-95414952D01*
X150406443Y-78048950D02*
X150384596Y-78054390D01*
X142964101Y-93691172D02*
X142914527Y-93772951D01*
X144332417Y-93496206D02*
X144397365Y-93434252D01*
X158205163Y-94831715D02*
X158148610Y-94777339D01*
X143377116Y-75819398D02*
X142265868Y-75581273D01*
X134358776Y-93680325D02*
X134301104Y-93708346D01*
X151519180Y-94321853D02*
X151502429Y-94288041D01*
X147205278Y-115104532D02*
X147456091Y-115143211D01*
X132195938Y-119460043D02*
X132037186Y-119618791D01*
X148367787Y-95523218D02*
X148344053Y-95512575D01*
X147047874Y-115091971D02*
X147099983Y-115093405D01*
X146485851Y-97499995D02*
X146464160Y-97533950D01*
X150174969Y-94002305D02*
X150226081Y-94079624D01*
X149490693Y-78133346D02*
X149384875Y-78088979D01*
X147698452Y-91316185D02*
X147740851Y-91242301D01*
X143700876Y-97269904D02*
X143677740Y-97114501D01*
X142460737Y-94574489D02*
X142472439Y-94600917D01*
X142265868Y-75105022D02*
X142216466Y-75096054D01*
X144239182Y-114973570D02*
X144266302Y-114972679D01*
X158388550Y-111907129D02*
X158398643Y-111895014D01*
X143138992Y-75978149D02*
X143456493Y-76057523D01*
X123888719Y-120314801D02*
X123983368Y-120281549D01*
X128083873Y-120288803D02*
X128118729Y-120275026D01*
X125436939Y-120378168D02*
X125489048Y-120379602D01*
X146777913Y-93982087D02*
X146833948Y-93962970D01*
X133177246Y-95363942D02*
X133196069Y-95272834D01*
X143488134Y-114570710D02*
X143567508Y-114570710D01*
X137327265Y-94671508D02*
X137269309Y-94730015D01*
X158093120Y-112506966D02*
X158093120Y-112030715D01*
X146492405Y-97134215D02*
X146507723Y-97199856D01*
X152646316Y-94458973D02*
X152599558Y-94413566D01*
X140887716Y-94949423D02*
X140834622Y-94943578D01*
X146776247Y-92031707D02*
X146776247Y-93222332D01*
X133793967Y-94365081D02*
X133836815Y-94358135D01*
X144681234Y-93225688D02*
X144757811Y-93184842D01*
X150508851Y-93170591D02*
X150469008Y-93231386D01*
X146538123Y-93539830D02*
X146538123Y-93698581D01*
X128809229Y-120443889D02*
X128831855Y-120446883D01*
X134651297Y-93337653D02*
X134591938Y-93436182D01*
X160945901Y-94516617D02*
X160934863Y-94541374D01*
X139786804Y-73768458D02*
X139745704Y-73741313D01*
X145965921Y-114796573D02*
X145985065Y-114856840D01*
X152393165Y-94050770D02*
X152372331Y-93974319D01*
X148225211Y-97205719D02*
X148271888Y-97281907D01*
X132413660Y-93104749D02*
X132363295Y-93130804D01*
X144471873Y-95003095D02*
X144636731Y-94916364D01*
X149695479Y-97366888D02*
X149654189Y-97314758D01*
X149457755Y-115131477D02*
X149491995Y-115112993D01*
X143729018Y-97409906D02*
X143700876Y-97269904D01*
X152418090Y-94122489D02*
X152393165Y-94050770D01*
X152696260Y-94500342D02*
X152646316Y-94458973D01*
X133300347Y-94901431D02*
X133334859Y-94813244D01*
X144071706Y-114932924D02*
X144099833Y-114944527D01*
X154278672Y-78110301D02*
X154250467Y-78141247D01*
X143567508Y-114570710D02*
X143646882Y-114570710D01*
X150715851Y-92983082D02*
X150684905Y-92995257D01*
X141981174Y-74992845D02*
X141970438Y-74981436D01*
X148886576Y-94584752D02*
X149330228Y-94830010D01*
X133146620Y-95535097D02*
X133177246Y-95363942D01*
X151190328Y-114933269D02*
X151246755Y-114917351D01*
X133069058Y-119142539D02*
X133148434Y-119142539D01*
X131663439Y-93895130D02*
X131627414Y-93930825D01*
X142004698Y-75013674D02*
X141992583Y-75003581D01*
X143677740Y-97114501D02*
X143659799Y-96947568D01*
X134474682Y-93586457D02*
X134416606Y-93639994D01*
X141210981Y-95176433D02*
X141156197Y-95112247D01*
X141898980Y-74843263D02*
X141887875Y-74802506D01*
X146284261Y-97631975D02*
X146234682Y-97636893D01*
X146108521Y-115066940D02*
X146138374Y-115093004D01*
X144919591Y-96398877D02*
X144884579Y-96511175D01*
X134243500Y-93724952D02*
X134185873Y-93731040D01*
X128319522Y-120256445D02*
X128341610Y-120260840D01*
X143439396Y-92973782D02*
X143426468Y-92972077D01*
X149801714Y-114969607D02*
X149820331Y-114966891D01*
X150427500Y-95047958D02*
X147649374Y-93539833D01*
X148083909Y-97042159D02*
X148114885Y-97073060D01*
X143643783Y-96241927D02*
X143654666Y-96075388D01*
X149483634Y-97024039D02*
X149423562Y-96898656D01*
X145677303Y-95903326D02*
X145666426Y-95880025D01*
X131627414Y-93930825D02*
X131589729Y-93964881D01*
X147396505Y-96941825D02*
X147570000Y-96714822D01*
X144858211Y-115045589D02*
X144903418Y-115057823D01*
X147375362Y-96971814D02*
X147396505Y-96941825D01*
X145948755Y-114729460D02*
X145965921Y-114796573D01*
X147014371Y-97587947D02*
X147014373Y-97587947D01*
X143647243Y-96772975D02*
X143640262Y-96594590D01*
X128699921Y-120413424D02*
X128742976Y-120428307D01*
X146504869Y-94103900D02*
X146612327Y-94051815D01*
X144982877Y-94753010D02*
X146299994Y-94204538D01*
X151045301Y-78262151D02*
X151026461Y-78257280D01*
X151070076Y-93421943D02*
X151036625Y-93330223D01*
X142265868Y-75581273D02*
X142265868Y-75105022D01*
X144999695Y-93094155D02*
X145084100Y-93075530D01*
X146604947Y-115144032D02*
X146794907Y-115113001D01*
X128251581Y-120250538D02*
X128274532Y-120251194D01*
X128615626Y-120376491D02*
X128657535Y-120395884D01*
X143654666Y-96075388D02*
X143671882Y-95920538D01*
X152563247Y-94656697D02*
X152602067Y-94682001D01*
X158282044Y-111981287D02*
X158298154Y-111973938D01*
X146201228Y-90782049D02*
X146180993Y-90796290D01*
X155312119Y-78154464D02*
X155262376Y-78157273D01*
X145009376Y-96187432D02*
X144960693Y-96290478D01*
X143456493Y-76057523D02*
X143456493Y-75819398D01*
X138586134Y-116136106D02*
X138685956Y-116106703D01*
X145723690Y-93150564D02*
X145800320Y-93182279D01*
X125541535Y-120383680D02*
X125594343Y-120390729D01*
X122909071Y-120174408D02*
X122988445Y-120174408D01*
X160725991Y-110574144D02*
X160759630Y-110539215D01*
X146581586Y-90767349D02*
X146485124Y-90758437D01*
X148042818Y-97828658D02*
X147982704Y-97842481D01*
X150353911Y-115142110D02*
X150375748Y-115148304D01*
X150506874Y-95524209D02*
X150189376Y-97667332D01*
X152643994Y-94705605D02*
X152689147Y-94727480D01*
X155262376Y-78157273D02*
X155161234Y-78156214D01*
X158398643Y-111895014D02*
X158408125Y-111882163D01*
X157029604Y-77803768D02*
X156950230Y-77803768D01*
X145925607Y-114762765D02*
X145948755Y-114729460D01*
X124114085Y-120218414D02*
X124153834Y-120194017D01*
X156614007Y-94842365D02*
X156424643Y-94890356D01*
X138380148Y-116178226D02*
X138483878Y-116159814D01*
X139408370Y-73200022D02*
X138473140Y-72600852D01*
X143726077Y-95661383D02*
X143743882Y-95609946D01*
X146400535Y-94156065D02*
X146504869Y-94103900D01*
X149645607Y-93460971D02*
X149720909Y-93518962D01*
X124699469Y-120447731D02*
X124738042Y-120451371D01*
X140264175Y-73947924D02*
X140161919Y-73924216D01*
X150032188Y-97615356D02*
X149963174Y-97582923D01*
X160572184Y-110694151D02*
X160613284Y-110667006D01*
X152646450Y-78251679D02*
X152386054Y-78279673D01*
X152749261Y-94537772D02*
X152696260Y-94500342D01*
X128657535Y-120395884D02*
X128699921Y-120413424D01*
X147911062Y-93410484D02*
X148049413Y-93335630D01*
X147273444Y-97159041D02*
X147286396Y-97126980D01*
X144509034Y-97559946D02*
X144474369Y-97587956D01*
X142076944Y-75055594D02*
X142060834Y-75048245D01*
X150684905Y-92995257D02*
X150652607Y-93014521D01*
X154121729Y-78219477D02*
X154085842Y-78229283D01*
X144772943Y-115013665D02*
X144814651Y-115030886D01*
X143205497Y-93054395D02*
X143187702Y-93071277D01*
X138275900Y-116191739D02*
X138380148Y-116178226D01*
X148517123Y-95642129D02*
X148502437Y-95623636D01*
X160051131Y-95079652D02*
X159883232Y-95134010D01*
X150899047Y-93062358D02*
X150876090Y-93036245D01*
X142060834Y-75048245D02*
X142045586Y-75040410D01*
X145378030Y-95816145D02*
X145340306Y-95834053D01*
X124527439Y-120379201D02*
X124558883Y-120400709D01*
X144814651Y-115030886D02*
X144858211Y-115045589D01*
X161809457Y-93002714D02*
X161705132Y-93041229D01*
X148543043Y-95682593D02*
X148530660Y-95661769D01*
X143671882Y-95920538D02*
X143695623Y-95781247D01*
X154329922Y-78032453D02*
X154305176Y-78074146D01*
X144047903Y-93850032D02*
X144153336Y-93700876D01*
X128274532Y-120251194D02*
X128297171Y-120253196D01*
X146520579Y-97370295D02*
X146514159Y-97418119D01*
X145876984Y-93216813D02*
X145953498Y-93253473D01*
X141992583Y-75003581D02*
X141981174Y-74992845D01*
X124626324Y-120431367D02*
X124662211Y-120441173D01*
X161705132Y-93041229D02*
X161605228Y-93087250D01*
X149362617Y-96771249D02*
X149297112Y-96643934D01*
X156240220Y-94929464D02*
X156150604Y-94944234D01*
X128448926Y-120296482D02*
X128490844Y-120315241D01*
X147331876Y-93222332D02*
X146776247Y-93222332D01*
X158378390Y-95154788D02*
X158343624Y-95057023D01*
X148502437Y-95623636D02*
X148486604Y-95606255D01*
X137035969Y-95098306D02*
X136999754Y-95183508D01*
X151083893Y-78269421D02*
X151064438Y-78266218D01*
X160640802Y-94816970D02*
X160509871Y-94890424D01*
X147597954Y-97817996D02*
X147537431Y-97795669D01*
X147855774Y-97854929D02*
X147790591Y-97853479D01*
X150107435Y-97643581D02*
X150032188Y-97615356D01*
X139148695Y-115825412D02*
X139180170Y-115788413D01*
X150488999Y-115162770D02*
X150512629Y-115161659D01*
X133524793Y-93359933D02*
X133393788Y-93260513D01*
X143763436Y-95564818D02*
X143784763Y-95526481D01*
X145725020Y-114932217D02*
X145764769Y-114907820D01*
X124395196Y-120196786D02*
X124418131Y-120244343D01*
X156014086Y-78028583D02*
X155989041Y-78016775D01*
X152925316Y-94627421D02*
X152863918Y-94601212D01*
X147060055Y-93919698D02*
X147088368Y-93918996D01*
X161465059Y-93171308D02*
X161421238Y-93203553D01*
X147568437Y-94012232D02*
X147778088Y-94079978D01*
X155553122Y-113459467D02*
X156188123Y-113459467D01*
X136999754Y-95183508D02*
X136966743Y-95271355D01*
X123586819Y-120368104D02*
X123688802Y-120358446D01*
X161262599Y-93355112D02*
X161227499Y-93398919D01*
X139300888Y-115570618D02*
X139316862Y-115520151D01*
X143488134Y-114729461D02*
X143488134Y-114570710D01*
X127812029Y-120434887D02*
X127846820Y-120417674D01*
X151135093Y-114951458D02*
X151190328Y-114933269D01*
X137525861Y-94535567D02*
X137455422Y-94573769D01*
X145800320Y-93182279D02*
X145876984Y-93216813D01*
X149694808Y-115002606D02*
X149729664Y-114988829D01*
X154393067Y-77870880D02*
X154373923Y-77931147D01*
X143028864Y-93505837D02*
X143016714Y-93554636D01*
X128925706Y-120445175D02*
X128983881Y-120434879D01*
X147144911Y-93921379D02*
X147173121Y-93924581D01*
X133334859Y-94813244D02*
X133373225Y-94729485D01*
X156065979Y-78043559D02*
X156039755Y-78037468D01*
X141950863Y-74956470D02*
X141941962Y-74942851D01*
X134056824Y-94337309D02*
X134100964Y-94331760D01*
X155663080Y-78045799D02*
X155625694Y-78068190D01*
X158298154Y-111973938D02*
X158313402Y-111966103D01*
X162011967Y-92240677D02*
X162056158Y-92301787D01*
X148891056Y-115230971D02*
X149020260Y-115222690D01*
X146667020Y-94026981D02*
X146722243Y-94003582D01*
X154085842Y-78229283D02*
X154048584Y-78235841D01*
X134252204Y-94293871D02*
X134273156Y-94285122D01*
X130550714Y-94284849D02*
X130370816Y-94296338D01*
X143269099Y-93010186D02*
X143246097Y-93023788D01*
X162057052Y-91581857D02*
X162024927Y-91634013D01*
X145953498Y-93253473D02*
X146254374Y-93407457D01*
X148994826Y-77968631D02*
X148933365Y-77962517D01*
X145449052Y-95794341D02*
X145414328Y-95802987D01*
X149885467Y-114964997D02*
X149908106Y-114966999D01*
X158187476Y-112011836D02*
X158228232Y-112000731D01*
X150664180Y-78076913D02*
X150629324Y-78063136D01*
X134438497Y-94186888D02*
X134496528Y-94146078D01*
X140274913Y-114812742D02*
X140434888Y-114236292D01*
X128136419Y-120269087D02*
X128154311Y-120263864D01*
X151425623Y-114888210D02*
X151425623Y-114570718D01*
X144570242Y-97494491D02*
X144540929Y-97528730D01*
X151334602Y-94687148D02*
X151383920Y-94669476D01*
X143856020Y-97715585D02*
X143841574Y-97698810D01*
X139209361Y-115749294D02*
X139236148Y-115708004D01*
X146146710Y-90924742D02*
X146154836Y-90963843D01*
X141482809Y-113665662D02*
X143329384Y-114729461D01*
X160999923Y-94236581D02*
X160995155Y-94295872D01*
X148390405Y-95534713D02*
X148367787Y-95523218D01*
X157373353Y-94654489D02*
X157187984Y-94691551D01*
X145340306Y-95834053D02*
X145301303Y-95856949D01*
X144033606Y-95285943D02*
X144168357Y-95187681D01*
X155941106Y-77983872D02*
X155918356Y-77962518D01*
X142531499Y-94319417D02*
X142508347Y-94361742D01*
X143640262Y-96594590D02*
X143639045Y-96416284D01*
X147858684Y-90832126D02*
X147846564Y-90809997D01*
X161083350Y-93656187D02*
X161061349Y-93715668D01*
X149020260Y-115222690D02*
X149148344Y-115210807D01*
X154719407Y-78050335D02*
X154675766Y-78029275D01*
X146146129Y-90860792D02*
X146143884Y-90890485D01*
X157878328Y-94647981D02*
X157801224Y-94634773D01*
X144960693Y-96290478D02*
X144919591Y-96398877D01*
X146397023Y-90753209D02*
X146319117Y-90753907D01*
X146379373Y-91396704D02*
X143680620Y-93142956D01*
X148549331Y-93123866D02*
X148620423Y-93110118D01*
X152388889Y-94470899D02*
X152411575Y-94505756D01*
X144534647Y-93321527D02*
X144606819Y-93271349D01*
X145347498Y-93058620D02*
X145421195Y-93065808D01*
X150594816Y-115148682D02*
X150651506Y-115135178D01*
X145689320Y-95955326D02*
X145684983Y-95928506D01*
X158440564Y-111822768D02*
X158447458Y-111805765D01*
X141877964Y-74757551D02*
X141868996Y-74708149D01*
X161061349Y-93715668D02*
X161041811Y-93777952D01*
X141266290Y-95252792D02*
X141210981Y-95176433D01*
X131508525Y-94027316D02*
X131464579Y-94055313D01*
X146282989Y-91241807D02*
X146379373Y-91396704D01*
X154556723Y-77956131D02*
X154521686Y-77928582D01*
X143016714Y-93554636D02*
X143002398Y-93602121D01*
X145850260Y-97559534D02*
X145772617Y-97528381D01*
X149660520Y-115018513D02*
X149694808Y-115002606D01*
X124497586Y-120353137D02*
X124527439Y-120379201D01*
X148114504Y-95453641D02*
X148046250Y-95444830D01*
X141941962Y-74942851D02*
X141933609Y-74928433D01*
X156147271Y-78046363D02*
X156119806Y-78047877D01*
X145802265Y-114881824D02*
X145837302Y-114854275D01*
X155161234Y-78156214D02*
X155059251Y-78146556D01*
X147982704Y-97842481D02*
X147920084Y-97851250D01*
X137852809Y-94465903D02*
X137764054Y-94469817D01*
X153754041Y-78218339D02*
X153564081Y-78187308D01*
X143718112Y-114658204D02*
X143760380Y-114703555D01*
X142017549Y-75023155D02*
X142004698Y-75013674D01*
X134100964Y-94331760D02*
X134144813Y-94324362D01*
X140514445Y-95036724D02*
X140063799Y-95306790D01*
X152319661Y-94316925D02*
X152333980Y-94357539D01*
X133269452Y-94992765D02*
X133300347Y-94901431D01*
X147785760Y-90764848D02*
X147758088Y-90755993D01*
X149332527Y-115182973D02*
X149351090Y-115177359D01*
X154859334Y-78102911D02*
X154764685Y-78069659D01*
X139260411Y-115664495D02*
X139282031Y-115618716D01*
X151467932Y-78305278D02*
X151338728Y-78296997D01*
X144275761Y-97834922D02*
X144225228Y-97834495D01*
X149278180Y-78045727D02*
X149223895Y-78025765D01*
X146946774Y-93933752D02*
X147003400Y-93924594D01*
X145985065Y-114856840D02*
X146006131Y-114910589D01*
X145178101Y-95957968D02*
X145135459Y-96003215D01*
X145772617Y-97528381D02*
X145691358Y-97491882D01*
X160757243Y-94737497D02*
X160640802Y-94816970D01*
X143171444Y-93089129D02*
X143156625Y-93107890D01*
X123339132Y-120353828D02*
X123387017Y-120361258D01*
X143356818Y-92976505D02*
X143341763Y-92980239D01*
X144836469Y-93149107D02*
X144917124Y-93118779D01*
X146180798Y-97636801D02*
X146122708Y-97631654D01*
X143143145Y-93127496D02*
X143130906Y-93147887D01*
X141970438Y-74981436D02*
X141960345Y-74969321D01*
X160995155Y-94295872D02*
X160988089Y-94354001D01*
X149615906Y-97260271D02*
X149580170Y-97203691D01*
X151491800Y-94607546D02*
X151515523Y-94584122D01*
X145542310Y-95793072D02*
X145513191Y-95789622D01*
X150801106Y-92985050D02*
X150773899Y-92978384D01*
X148486604Y-95606255D02*
X148469631Y-95589947D01*
X132011042Y-93448882D02*
X131948087Y-93531608D01*
X160690307Y-110607053D02*
X160725991Y-110574144D01*
X160908541Y-94588337D02*
X160893077Y-94610424D01*
X147725349Y-97846865D02*
X147660865Y-97835050D01*
X149330228Y-94830010D02*
X149756119Y-95078093D01*
X142853268Y-94677754D02*
X142943876Y-94667059D01*
X148334177Y-93195941D02*
X148406034Y-93167536D01*
X149168660Y-78007576D02*
X149112233Y-77991658D01*
X152355717Y-93893036D02*
X152343453Y-93806822D01*
X137600699Y-94505164D02*
X137525861Y-94535567D01*
X154316874Y-96873577D02*
X151141875Y-97746704D01*
X147972934Y-115205366D02*
X148235590Y-115225543D01*
X142516936Y-94643948D02*
X142550679Y-94660087D01*
X149961163Y-78227838D02*
X149938824Y-78231999D01*
X123203716Y-120317083D02*
X123247276Y-120331786D01*
X146029066Y-114958146D02*
X146053812Y-114999839D01*
X139316862Y-115520151D02*
X139329834Y-115467266D01*
X139965665Y-73859318D02*
X139873582Y-73817332D01*
X145652501Y-95858842D02*
X145635675Y-95840016D01*
X150496472Y-78038648D02*
X150473521Y-78039304D01*
X142456059Y-94512966D02*
X142455435Y-94545095D01*
X139873582Y-73817332D02*
X139786804Y-73768458D01*
X133415685Y-94651436D02*
X133462478Y-94580378D01*
X149313687Y-115187844D02*
X149332527Y-115182973D01*
X151502429Y-94288041D02*
X151462663Y-94218298D01*
X132467051Y-93081250D02*
X132413660Y-93104749D01*
X148173191Y-97137310D02*
X148200094Y-97170928D01*
X146945005Y-115095724D02*
X146996196Y-115092853D01*
X146225387Y-90770970D02*
X146201228Y-90782049D01*
X152368475Y-94434556D02*
X152388889Y-94470899D01*
X143130906Y-93147887D02*
X143119808Y-93169000D01*
X149764172Y-78222989D02*
X149707482Y-78209485D01*
X162492487Y-92904830D02*
X162375047Y-92907467D01*
X162056158Y-92301787D02*
X162110315Y-92364384D01*
X151462183Y-94629618D02*
X151491800Y-94607546D01*
X151141875Y-94730453D02*
X151213916Y-94717694D01*
X150445843Y-94969519D02*
X150427500Y-95047958D01*
X149842004Y-97506490D02*
X149788926Y-97463019D01*
X154433381Y-77837072D02*
X154410233Y-77803767D01*
X161917565Y-92971269D02*
X161809457Y-93002714D01*
X137946442Y-94471850D02*
X137852809Y-94465903D01*
X148336531Y-97482862D02*
X148335668Y-97540522D01*
X145687373Y-96012927D02*
X145690166Y-95983546D01*
X123122359Y-120280080D02*
X123162008Y-120299862D01*
X147355052Y-97002154D02*
X147375362Y-96971814D01*
X146253241Y-90762773D02*
X146225387Y-90770970D01*
X124337820Y-120015657D02*
X124354986Y-120082770D01*
X149707482Y-78209485D02*
X149652032Y-78193270D01*
X148049413Y-93335630D02*
X148190915Y-93262090D01*
X161951262Y-92122463D02*
X161977187Y-92180940D01*
X154594219Y-77982127D02*
X154556723Y-77956131D01*
X148052002Y-97011895D02*
X148083909Y-97042159D01*
X147778088Y-94079978D02*
X147993743Y-94161232D01*
X152350211Y-94396759D02*
X152368475Y-94434556D01*
X143805800Y-94332425D02*
X143873479Y-94168178D01*
X143807888Y-95495420D02*
X143858234Y-95441368D01*
X139881322Y-95385579D02*
X139818306Y-95403515D01*
X149720909Y-93518962D02*
X149865068Y-93644399D01*
X139002349Y-115953203D02*
X139041763Y-115924187D01*
X161163330Y-93494017D02*
X161134420Y-93545416D01*
X154521686Y-77928582D02*
X154489313Y-77899525D01*
X147649372Y-91396704D02*
X147698452Y-91316185D01*
X149740238Y-97416396D02*
X149695479Y-97366888D01*
X140675296Y-94966876D02*
X140621941Y-94985920D01*
X126887886Y-120522453D02*
X127019190Y-120523745D01*
X125385261Y-120379050D02*
X125436939Y-120378168D01*
X145513191Y-95789622D02*
X145482056Y-95789965D01*
X147869359Y-90888595D02*
X147866356Y-90858237D01*
X149294550Y-115191911D02*
X149313687Y-115187844D01*
X144174886Y-97832331D02*
X144125255Y-97827983D01*
X161107734Y-93599454D02*
X161083350Y-93656187D01*
X150773899Y-92978384D02*
X150745498Y-92977593D01*
X146696873Y-96635455D02*
X146220623Y-96556081D01*
X149568525Y-93406440D02*
X149645607Y-93460971D01*
X143680092Y-114613578D02*
X143718112Y-114658204D01*
X133774309Y-93554365D02*
X133524793Y-93359933D01*
X123162008Y-120299862D02*
X123203716Y-120317083D01*
X152729367Y-94889203D02*
X153145598Y-95453097D01*
X158460008Y-111768956D02*
X158471113Y-111728199D01*
X155730243Y-77993009D02*
X155697998Y-78020754D01*
X148725877Y-93101744D02*
X148760625Y-93102597D01*
X147088368Y-93918996D02*
X147116656Y-93919537D01*
X146776247Y-93222332D02*
X145744372Y-92746082D01*
X158713691Y-95443602D02*
X158572627Y-95483675D01*
X139553441Y-95414952D02*
X138045071Y-94488173D01*
X145691358Y-97491882D02*
X145606582Y-97449989D01*
X150257209Y-78103351D02*
X150174051Y-78144160D01*
X154010011Y-78239481D02*
X153970178Y-78240528D01*
X150375748Y-115148304D02*
X150397825Y-115153531D01*
X153418990Y-94717263D02*
X153267823Y-94707320D01*
X144015757Y-114904957D02*
X144043657Y-114919691D01*
X133942187Y-119063165D02*
X133942187Y-118745664D01*
X143464389Y-92979490D02*
X143452031Y-92976265D01*
X124442877Y-120286036D02*
X124469381Y-120322191D01*
X129204172Y-120366593D02*
X129257360Y-120345236D01*
X123789983Y-120340556D02*
X123888719Y-120314801D01*
X147986252Y-96952744D02*
X148052002Y-97011895D01*
X148920965Y-93122671D02*
X149002335Y-93141150D01*
X150618906Y-93041282D02*
X150583748Y-93075944D01*
X145135459Y-96003215D02*
X145099882Y-96046080D01*
X158471113Y-111728199D02*
X158481024Y-111683244D01*
X158569368Y-111633842D02*
X158648745Y-111951341D01*
X123292483Y-120344020D02*
X123339132Y-120353828D01*
X150268470Y-115109687D02*
X150310856Y-115127227D01*
X136775010Y-96556088D02*
X133123761Y-95682961D01*
X145837302Y-114854275D02*
X145869675Y-114825218D01*
X135266887Y-93698585D02*
X134711263Y-93222335D01*
X159680617Y-111395717D02*
X159680617Y-110919467D01*
X129096021Y-120405160D02*
X129150473Y-120386733D01*
X148114885Y-97073060D02*
X148144717Y-97104732D01*
X124072287Y-120241165D02*
X124114085Y-120218414D01*
X128490844Y-120315241D02*
X128574002Y-120356050D01*
X128297171Y-120253196D02*
X128319522Y-120256445D01*
X150059861Y-115010285D02*
X150101779Y-115029044D01*
X149329364Y-93265939D02*
X149410127Y-93308692D01*
X145096612Y-115082966D02*
X145197754Y-115081907D01*
X150101779Y-115029044D02*
X150184937Y-115069853D01*
X145924189Y-97585390D02*
X145850260Y-97559534D01*
X124469381Y-120322191D02*
X124497586Y-120353137D01*
X143944279Y-97779804D02*
X143924707Y-97769395D01*
X154078740Y-94651079D02*
X153907608Y-94681932D01*
X148840303Y-93109742D02*
X148920965Y-93122671D01*
X149869989Y-78237077D02*
X149846359Y-78235966D01*
X140062097Y-73894813D02*
X139965665Y-73859318D01*
X146388810Y-115166221D02*
X146429849Y-115165004D01*
X133624687Y-119301290D02*
X133942187Y-119063165D01*
X132890196Y-93023237D02*
X132811332Y-93015339D01*
X131368938Y-94103912D02*
X131219827Y-94159926D01*
X145499654Y-115028604D02*
X145594303Y-114995352D01*
X151064438Y-78266218D02*
X151045301Y-78262151D01*
X160893077Y-94610424D02*
X160875958Y-94631500D01*
X150048132Y-78201534D02*
X150005077Y-78216417D01*
X143084853Y-93259444D02*
X143071650Y-93307393D01*
X131957814Y-119380665D02*
X132195938Y-119460043D01*
X142031168Y-75032057D02*
X142017549Y-75023155D01*
X143752019Y-94496960D02*
X143805800Y-94332425D01*
X162492487Y-92825454D02*
X162492487Y-92904830D01*
X151557469Y-94448710D02*
X151552876Y-94418368D01*
X152372331Y-93974319D02*
X152355717Y-93893036D01*
X149899933Y-97546547D02*
X149842004Y-97506490D01*
X128983881Y-120434879D02*
X129040571Y-120421375D01*
X127702752Y-120474041D02*
X127721592Y-120469170D01*
X146833948Y-93962970D02*
X146890263Y-93946701D01*
X144884579Y-96511175D02*
X144854163Y-96625918D01*
X129469873Y-120257617D02*
X129524158Y-120237655D01*
X145261170Y-95885075D02*
X145220053Y-95918668D01*
X133042283Y-93063010D02*
X132967149Y-93039425D01*
X131878438Y-119380665D02*
X131957814Y-119380665D01*
X147809879Y-90776623D02*
X147785760Y-90764848D01*
X142550679Y-94660087D02*
X142592715Y-94672334D01*
X134552590Y-94104463D02*
X134767874Y-93938540D01*
X131763679Y-93780122D02*
X131698016Y-93857988D01*
X145744372Y-92746082D02*
X145744372Y-92587332D01*
X161227499Y-93398919D02*
X161194383Y-93445203D01*
X131062340Y-94205019D02*
X130897585Y-94240198D01*
X154158116Y-93777952D02*
X154078740Y-93777952D01*
X156119806Y-78047877D02*
X156092686Y-78046986D01*
X150799527Y-78148463D02*
X150732349Y-78110372D01*
X124418131Y-120244343D02*
X124442877Y-120286036D01*
X146122708Y-97631654D02*
X146060511Y-97621401D01*
X150876090Y-93036245D02*
X150852149Y-93014386D01*
X134994540Y-93794087D02*
X135057004Y-93764549D01*
X134377962Y-94226464D02*
X134438497Y-94186888D01*
X145899179Y-114794699D02*
X145925607Y-114762765D01*
X162258197Y-92914993D02*
X162142573Y-92927845D01*
X138483878Y-116159814D02*
X138586134Y-116136106D01*
X148978711Y-96229602D02*
X148915762Y-96177909D01*
X148690582Y-96039893D02*
X148601875Y-96000457D01*
X157219996Y-112903842D02*
X156902495Y-112983216D01*
X132270791Y-93189821D02*
X132228227Y-93222402D01*
X146776247Y-97826071D02*
X146855623Y-97587947D01*
X146406194Y-97587655D02*
X146370116Y-97607309D01*
X150448895Y-94646238D02*
X150458126Y-94728022D01*
X149223361Y-96518827D02*
X149182241Y-96457763D01*
X134496528Y-94146078D02*
X134552590Y-94104463D01*
X145666426Y-95880025D02*
X145652501Y-95858842D01*
X150427498Y-93301704D02*
X147649372Y-91396704D01*
X143806333Y-114748596D02*
X143855409Y-114792291D01*
X153965616Y-114570718D02*
X153965616Y-113935719D01*
X148406034Y-93167536D02*
X148477810Y-93143258D01*
X146502550Y-97461368D02*
X146485851Y-97499995D01*
X147099983Y-115093405D02*
X147152470Y-115097483D01*
X146220623Y-96556081D02*
X146277768Y-96651046D01*
X139115056Y-115860341D02*
X139148695Y-115825412D01*
X138069682Y-116205664D02*
X138172092Y-116200753D01*
X146168492Y-91008067D02*
X146187905Y-91057696D01*
X154250467Y-78141247D02*
X154220614Y-78167311D01*
X139511905Y-73496114D02*
X139487642Y-73452605D01*
X143906029Y-97757824D02*
X143888312Y-97745036D01*
X149422964Y-115148690D02*
X149457755Y-115131477D01*
X145585944Y-96200196D02*
X145613666Y-96168874D01*
X123688802Y-120358446D02*
X123789983Y-120340556D01*
X151554680Y-94506304D02*
X151558182Y-94478041D01*
X150519759Y-78039441D02*
X150496472Y-78038648D01*
X161923762Y-92008829D02*
X161933639Y-92065130D01*
X136936819Y-95361333D02*
X136885750Y-95545617D01*
X131698016Y-93857988D02*
X131663439Y-93895130D01*
X159283745Y-111633842D02*
X159680617Y-111395717D01*
X160978005Y-94410488D02*
X160964183Y-94464853D01*
X153965616Y-113935719D02*
X154679993Y-113856342D01*
X147758088Y-90755993D02*
X147727086Y-90749793D01*
X150315226Y-94238144D02*
X150352706Y-94318879D01*
X147093750Y-97667323D02*
X147093750Y-97746697D01*
X151000921Y-93242550D02*
X150962544Y-93162169D01*
X140367905Y-73966336D02*
X140264175Y-73947924D01*
X145258083Y-93057466D02*
X145347498Y-93058620D01*
X140678371Y-73993774D02*
X140575961Y-73988863D01*
X140728482Y-94953004D02*
X140675296Y-94966876D01*
X134070193Y-93715241D02*
X134011960Y-93695146D01*
X147480113Y-97768030D02*
X147426814Y-97735043D01*
X156287282Y-78007231D02*
X156259155Y-78018834D01*
X152789610Y-94765916D02*
X152845160Y-94782417D01*
X150921074Y-93092320D02*
X150899047Y-93062358D01*
X148620423Y-93110118D02*
X148655754Y-93105599D01*
X156998053Y-94738316D02*
X156805935Y-94790136D01*
X155553122Y-113776968D02*
X155553122Y-113459467D01*
X158313402Y-111966103D02*
X158327820Y-111957750D01*
X145684983Y-95928506D02*
X145677303Y-95903326D01*
X143985848Y-97797362D02*
X143964681Y-97789108D01*
X147335539Y-97652877D02*
X147299194Y-97603626D01*
X132730468Y-93016628D02*
X132647513Y-93028000D01*
X128854792Y-120448609D02*
X128878064Y-120448967D01*
X158425379Y-111854126D02*
X158433215Y-111838878D01*
X149756119Y-95078093D02*
X150506874Y-95524209D01*
X152411575Y-94505756D02*
X152436651Y-94539098D01*
X143682674Y-94893995D02*
X143688774Y-94817408D01*
X151598048Y-78310162D02*
X151467932Y-78305278D01*
X151426335Y-94650280D02*
X151462183Y-94629618D01*
X143988076Y-114888853D02*
X144015757Y-114904957D01*
X150061047Y-93852708D02*
X150119865Y-93926589D01*
X153055603Y-94669312D02*
X152989254Y-94650087D01*
X157187984Y-94691551D02*
X156998053Y-94738316D01*
X148933365Y-77645025D02*
X147200000Y-77500000D01*
X153362792Y-78167160D02*
X153311114Y-78166278D01*
X131948087Y-93531608D02*
X131826110Y-93698753D01*
X151304619Y-114904204D02*
X151364162Y-114894324D01*
X160366549Y-94958357D02*
X160212936Y-95021267D01*
X144474369Y-97587956D02*
X144553743Y-97826080D01*
X145647278Y-93122365D02*
X145723690Y-93150564D01*
X150428531Y-78044555D02*
X150406443Y-78048950D01*
X137265244Y-71453772D02*
X137106496Y-70818772D01*
X144636731Y-94916364D02*
X144807716Y-94833070D01*
X147366284Y-93959823D02*
X147568437Y-94012232D01*
X156503579Y-77866598D02*
X156451941Y-77907913D01*
X147867468Y-90923465D02*
X147869359Y-90888595D01*
X156259155Y-78018834D02*
X156231020Y-78028678D01*
X145613666Y-96168874D02*
X145636865Y-96137276D01*
X129579393Y-120219466D02*
X129635820Y-120203548D01*
X145744372Y-92587332D02*
X146776247Y-92031707D01*
X128363457Y-120266280D02*
X128406528Y-120279894D01*
X139943196Y-95363013D02*
X139881322Y-95385579D01*
X158433215Y-111838878D02*
X158440564Y-111822768D01*
X143799557Y-97628229D02*
X143761974Y-97530637D01*
X122988445Y-120174408D02*
X123017810Y-120204899D01*
X130726673Y-94266472D02*
X130550714Y-94284849D01*
X160964183Y-94464853D02*
X160955644Y-94491090D01*
X140063799Y-95306790D02*
X140003999Y-95336516D01*
X150310856Y-115127227D02*
X150353911Y-115142110D01*
X153739916Y-94703776D02*
X153576698Y-94715818D01*
X147243020Y-97274210D02*
X147262605Y-97191439D01*
X127881060Y-120399190D02*
X127948526Y-120360353D01*
X138473140Y-72600852D02*
X138313165Y-72024402D01*
X145170257Y-93063202D02*
X145258083Y-93057466D01*
X129150473Y-120386733D02*
X129204172Y-120366593D01*
X147529946Y-90749337D02*
X147435599Y-90758456D01*
X159711341Y-95184840D02*
X159363975Y-95277905D01*
X147728740Y-96714822D02*
X147758212Y-96746092D01*
X152253115Y-93619204D02*
X152255380Y-93840902D01*
X142045586Y-75040410D02*
X142031168Y-75032057D01*
X148432276Y-95560405D02*
X148411903Y-95547096D01*
X161925028Y-91898863D02*
X161921076Y-91953444D01*
X129635820Y-120203548D02*
X129693684Y-120190401D01*
X143224929Y-93038545D02*
X143205497Y-93054395D01*
X131957809Y-119936292D02*
X132354681Y-119856915D01*
X151533686Y-94559402D02*
X151546627Y-94533444D01*
X145426867Y-96714833D02*
X145426867Y-96317957D01*
X133942187Y-118745664D02*
X137100000Y-117700000D01*
X143426468Y-92972077D02*
X143413230Y-92971186D01*
X133690323Y-94393875D02*
X133710582Y-94386513D01*
X148099612Y-97809817D02*
X148042818Y-97828658D01*
X143873479Y-94168178D02*
X143954398Y-94006590D01*
X152259626Y-93945537D02*
X152267221Y-94045701D01*
X151546627Y-94533444D02*
X151554680Y-94506304D01*
X146237259Y-115145170D02*
X146273146Y-115154976D01*
X152279121Y-94141151D02*
X152296283Y-94231640D01*
X162110315Y-92364384D02*
X162174991Y-92428582D01*
X156640876Y-77732511D02*
X156598608Y-77777862D01*
X148915762Y-96177909D02*
X148847065Y-96128883D01*
X124818914Y-120451201D02*
X124904384Y-120443281D01*
X149559461Y-115074156D02*
X149626639Y-115036065D01*
X138782388Y-116071208D02*
X138874471Y-116029222D01*
X147093750Y-97826071D02*
X146776247Y-97826071D01*
X153260620Y-96083749D02*
X153740668Y-96176783D01*
X127280121Y-120517168D02*
X127409325Y-120508887D01*
X145569265Y-95800076D02*
X145542310Y-95793072D01*
X154352857Y-77984896D02*
X154329922Y-78032453D01*
X132037186Y-119618791D02*
X131957809Y-119936292D01*
X160857094Y-94651507D02*
X160809373Y-94695348D01*
X128341610Y-120260840D02*
X128363457Y-120266280D01*
X148573224Y-95752547D02*
X148564329Y-95727946D01*
X148324959Y-97593458D02*
X148305219Y-97641633D01*
X151364162Y-114894324D02*
X151425623Y-114888210D01*
X155235622Y-114015093D02*
X155553122Y-113776968D01*
X151062499Y-97667330D02*
X151141875Y-94730453D01*
X149489940Y-93355604D02*
X149568525Y-93406440D01*
X143855409Y-114792291D02*
X143907047Y-114833606D01*
X133241933Y-95085964D02*
X133269452Y-94992765D01*
X149223895Y-78025765D02*
X149168660Y-78007576D01*
X141925773Y-74913185D02*
X141918424Y-74897075D01*
X141101868Y-95059536D02*
X141047925Y-95017598D01*
X150469008Y-93231386D02*
X150427498Y-93301704D01*
X150397825Y-115153531D02*
X150420164Y-115157692D01*
X138685956Y-116106703D02*
X138782388Y-116071208D01*
X141887875Y-74802506D02*
X141877964Y-74757551D01*
X143646882Y-114570710D02*
X143680092Y-114613578D01*
X144270042Y-93561492D02*
X144332417Y-93496206D01*
X148587497Y-95805786D02*
X148580948Y-95778482D01*
X160955644Y-94491090D02*
X160945901Y-94516617D01*
X139041763Y-115924187D02*
X139079372Y-115893250D01*
X146234682Y-97636893D02*
X146180798Y-97636801D01*
X152689147Y-94727480D02*
X152737646Y-94747594D01*
X134934931Y-93826685D02*
X134994540Y-93794087D01*
X125283421Y-120386455D02*
X125334070Y-120381921D01*
X158648745Y-111951341D02*
X159045621Y-111554465D01*
X141868996Y-74708149D02*
X141789620Y-74708149D01*
X149974392Y-114980083D02*
X150017463Y-114993697D01*
X150852149Y-93014386D02*
X150827172Y-92997186D01*
X144597158Y-97457409D02*
X144570242Y-97494491D01*
X157951916Y-94668260D02*
X157878328Y-94647981D01*
X152904414Y-94797065D02*
X152967491Y-94809829D01*
X131878438Y-119698167D02*
X131878438Y-119380665D01*
X127537409Y-120497004D02*
X127664160Y-120481311D01*
X143680622Y-94968579D02*
X143682674Y-94893995D01*
X145869675Y-114825218D02*
X145899179Y-114794699D01*
X145690166Y-95983546D02*
X145689320Y-95955326D01*
X134293889Y-94275315D02*
X134314386Y-94264376D01*
X158256714Y-94896067D02*
X158205163Y-94831715D01*
X133386563Y-119142539D02*
X133624687Y-119301290D01*
X150547080Y-93118911D02*
X150508851Y-93170591D01*
X149938824Y-78231999D02*
X149916198Y-78234993D01*
X154373923Y-77931147D02*
X154352857Y-77984896D01*
X142093947Y-75062488D02*
X142076944Y-75055594D01*
X154078740Y-93777952D02*
X154078740Y-94651079D01*
X160485406Y-110743025D02*
X160572184Y-110694151D01*
X138172092Y-116200753D02*
X138275900Y-116191739D01*
X160393323Y-110785011D02*
X160485406Y-110743025D01*
X133307187Y-119380664D02*
X133386563Y-119142539D01*
X127948526Y-120360353D02*
X128015704Y-120322262D01*
X143371475Y-92973769D02*
X143356818Y-92976505D01*
X146080316Y-115035994D02*
X146108521Y-115066940D01*
X155759608Y-77962518D02*
X155730243Y-77993009D01*
X155964691Y-78001914D02*
X155941106Y-77983872D01*
X136845591Y-95732238D02*
X136815388Y-95917072D01*
X137118495Y-94937899D02*
X137075510Y-95016264D01*
X130897585Y-94240198D02*
X130726673Y-94266472D01*
X131418122Y-94080908D02*
X131368938Y-94103912D01*
X156188123Y-113459467D02*
X157219996Y-112903842D01*
X151026461Y-78257280D02*
X151007898Y-78251666D01*
X123485677Y-120369163D02*
X123586819Y-120368104D01*
X133710582Y-94386513D02*
X133751840Y-94374342D01*
X147426814Y-97735043D02*
X147378351Y-97696671D01*
X132363295Y-93130804D02*
X132315743Y-93159225D01*
X152516119Y-94310241D02*
X152479696Y-94252125D01*
X145482056Y-95789965D02*
X145449052Y-95794341D01*
X153464632Y-78174565D02*
X153413983Y-78170031D01*
X148690912Y-93102776D02*
X148725877Y-93101744D01*
X147866356Y-90858237D02*
X147858684Y-90832126D01*
X145046869Y-115080157D02*
X145096612Y-115082966D01*
X156791480Y-77645017D02*
X156712106Y-77645017D01*
X124777875Y-120452418D02*
X124818914Y-120451201D01*
X144718777Y-97185420D02*
X144684589Y-97284301D01*
X128118729Y-120275026D02*
X128136419Y-120269087D01*
X146444629Y-96989980D02*
X146471407Y-97064240D01*
X135089475Y-93751062D02*
X135122860Y-93738500D01*
X154764685Y-78069659D02*
X154719407Y-78050335D01*
X141313367Y-74628772D02*
X141075243Y-74708149D01*
X148847065Y-96128883D02*
X148772158Y-96082790D01*
X137764054Y-94469817D02*
X137680058Y-94483076D01*
X148600050Y-95896290D02*
X148597052Y-95864653D01*
X143555434Y-93027549D02*
X143533732Y-93012339D01*
X158142522Y-112021747D02*
X158187476Y-112011836D01*
X149916198Y-78234993D02*
X149893261Y-78236719D01*
X149862516Y-114964341D02*
X149885467Y-114964997D01*
X148235590Y-115225543D02*
X148498821Y-115236256D01*
X148601856Y-95929445D02*
X148600050Y-95896290D01*
X158406966Y-95264853D02*
X158378390Y-95154788D01*
X158572627Y-95483675D02*
X158444364Y-95524204D01*
X144293009Y-114969252D02*
X144319233Y-114963161D01*
X149054369Y-77978511D02*
X148994826Y-77968631D01*
X152967491Y-94809829D02*
X152967491Y-94889203D01*
X159783027Y-110914556D02*
X159886835Y-110905542D01*
X129257360Y-120345236D02*
X129363178Y-120300869D01*
X147740851Y-91242301D02*
X147776794Y-91174785D01*
X143841574Y-97698810D02*
X143820023Y-97667138D01*
X145606582Y-97449989D02*
X145518386Y-97402654D01*
X159991083Y-110892029D02*
X160094813Y-110873617D01*
X123435934Y-120366354D02*
X123485677Y-120369163D01*
X148554267Y-95704640D02*
X148543043Y-95682593D01*
X144801149Y-96856923D02*
X144748605Y-97080261D01*
X132228227Y-93222402D02*
X132187837Y-93256776D01*
X139668681Y-73681360D02*
X139632997Y-73648451D01*
X134144813Y-94324362D02*
X134188224Y-94314520D01*
X147249168Y-97488601D02*
X147237117Y-97422755D01*
X133953345Y-93668116D02*
X133894258Y-93635045D01*
X127846820Y-120417674D02*
X127881060Y-120399190D01*
X147331876Y-93222332D02*
X147411250Y-92031707D01*
X143960683Y-114871506D02*
X143988076Y-114888853D01*
X125334070Y-120381921D02*
X125385261Y-120379050D01*
X136966743Y-95271355D02*
X136936819Y-95361333D01*
X150341525Y-78068004D02*
X150299127Y-78084592D01*
X152805190Y-94571362D02*
X152749261Y-94537772D01*
X150827172Y-92997186D02*
X150801106Y-92985050D01*
X150706956Y-115118963D02*
X150761408Y-115100536D01*
X155500777Y-78119896D02*
X155455570Y-78132130D01*
X124153834Y-120194017D02*
X124191330Y-120168021D01*
X140678371Y-74470024D02*
X140678371Y-73993774D01*
X152845160Y-94782417D02*
X152904414Y-94797065D01*
X147237117Y-97422755D02*
X147234796Y-97351304D01*
X124354986Y-120082770D02*
X124374130Y-120143037D01*
X151383920Y-94669476D02*
X151426335Y-94650280D01*
X134185873Y-93731040D02*
X134128134Y-93727504D01*
X147806502Y-91113374D02*
X147830201Y-91057802D01*
X124314672Y-120048962D02*
X124337820Y-120015657D01*
X146348977Y-115165174D02*
X146388810Y-115166221D01*
X161996111Y-91686289D02*
X161971159Y-91738798D01*
X148437102Y-94356948D02*
X148661821Y-94467754D01*
X137215275Y-94794259D02*
X137165043Y-94863726D01*
X158021690Y-94696193D02*
X157951916Y-94668260D01*
X153648121Y-114332594D02*
X153568744Y-114650095D01*
X149998791Y-93780894D02*
X150061047Y-93852708D01*
X150384596Y-78054390D02*
X150341525Y-78068004D01*
X159045621Y-111554465D02*
X159283745Y-111633842D01*
X148772158Y-96082790D02*
X148690582Y-96039893D01*
X144225228Y-97834495D02*
X144174886Y-97832331D01*
X148760625Y-93102597D02*
X148840303Y-93109742D01*
X142130756Y-75075038D02*
X142093947Y-75062488D01*
X148655754Y-93105599D02*
X148690912Y-93102776D01*
X147230180Y-90780965D02*
X147122680Y-90790112D01*
X126624655Y-120511740D02*
X126887886Y-120522453D01*
X161010427Y-93997384D02*
X160999923Y-94236581D01*
X124591863Y-120417988D02*
X124626324Y-120431367D01*
X142914527Y-93772951D02*
X142854565Y-93860477D01*
X149384875Y-78088979D02*
X149278180Y-78045727D01*
X150119865Y-93926589D02*
X150174969Y-94002305D01*
X161421238Y-93203553D02*
X161379002Y-93238001D01*
X152527416Y-94629724D02*
X152563247Y-94656697D01*
X150005077Y-78216417D02*
X149983240Y-78222611D01*
X147649374Y-93539833D02*
X147712485Y-93511939D01*
X144125255Y-97827983D02*
X144076857Y-97821004D01*
X133751840Y-94374342D02*
X133793967Y-94365081D01*
X143871621Y-97730975D02*
X143856020Y-97715585D01*
X141933609Y-74928433D02*
X141925773Y-74913185D01*
X159480366Y-76787826D02*
X157029604Y-77803768D01*
X133217552Y-95179748D02*
X133241933Y-95085964D01*
X149543881Y-78154703D02*
X149490693Y-78133346D01*
X158447458Y-111805765D02*
X158460008Y-111768956D01*
X134767874Y-93938540D02*
X134822134Y-93899340D01*
X150189376Y-97667332D02*
X150107435Y-97643581D01*
X145670281Y-96074215D02*
X145680794Y-96043230D01*
X135057004Y-93764549D02*
X135089475Y-93751062D01*
X139745704Y-73741313D02*
X139706290Y-73712297D01*
X152296283Y-94231640D02*
X152319661Y-94316925D01*
X144464802Y-93375927D02*
X144534647Y-93321527D01*
X144807716Y-94833070D02*
X144982877Y-94753010D01*
X150299127Y-78084592D02*
X150257209Y-78103351D01*
X148213912Y-94254165D02*
X148437102Y-94356948D01*
X149654189Y-97314758D02*
X149615906Y-97260271D01*
X150974113Y-115014672D02*
X151080808Y-114971420D01*
X141918424Y-74897075D02*
X141911530Y-74880072D01*
X161134420Y-93545416D02*
X161107734Y-93599454D01*
X146792260Y-90787264D02*
X146581586Y-90767349D01*
X160988089Y-94354001D02*
X160978005Y-94410488D01*
X128172424Y-120259416D02*
X128190779Y-120255804D01*
X151533396Y-94354883D02*
X151519180Y-94321853D01*
X150420164Y-115157692D02*
X150442790Y-115160686D01*
X132811332Y-93015339D02*
X132730468Y-93016628D01*
X150272926Y-94158315D02*
X150315226Y-94238144D01*
X152967491Y-94889203D02*
X152729367Y-94889203D01*
X133123761Y-95682961D02*
X133146620Y-95535097D01*
X129814688Y-119856915D02*
X131878438Y-119698167D01*
X140621941Y-94985920D02*
X140568347Y-95009436D01*
X129040571Y-120421375D02*
X129096021Y-120405160D01*
X146894356Y-115100258D02*
X146945005Y-115095724D01*
X133631247Y-94421964D02*
X133650638Y-94411526D01*
X144599380Y-114888211D02*
X144628745Y-114918702D01*
X150901233Y-78205784D02*
X150866993Y-78187300D01*
X153929139Y-78239311D02*
X153843669Y-78231391D01*
X144099833Y-114944527D02*
X144127968Y-114954371D01*
X145664994Y-97270456D02*
X145903118Y-96317957D01*
X146902803Y-90793784D02*
X146792260Y-90787264D01*
X145616095Y-95823787D02*
X145593909Y-95810394D01*
X149933372Y-93711381D02*
X149998791Y-93780894D01*
X154489313Y-77899525D02*
X154459809Y-77869006D01*
X153489373Y-114094468D02*
X153568749Y-114094468D01*
X147286396Y-97126980D02*
X147301245Y-97095258D01*
X151558182Y-94478041D02*
X151557469Y-94448710D01*
X152556116Y-94364022D02*
X152516119Y-94310241D01*
X127721592Y-120469170D02*
X127740155Y-120463556D01*
X139180170Y-115788413D02*
X139209361Y-115749294D01*
X138999714Y-96207347D02*
X139794383Y-96030285D01*
X139599358Y-73613522D02*
X139567883Y-73576523D01*
X145400918Y-115054359D02*
X145499654Y-115028604D01*
X143408758Y-114729461D02*
X143488134Y-114729461D01*
X150629324Y-78063136D02*
X150611634Y-78057197D01*
X149084136Y-93164949D02*
X149166092Y-93193835D01*
X149846359Y-78235966D02*
X149822347Y-78233285D01*
X144606819Y-93271349D02*
X144681234Y-93225688D01*
X145495847Y-93079291D02*
X145571269Y-93098375D01*
X144733294Y-114993883D02*
X144772943Y-115013665D01*
X139794383Y-96030285D02*
X141378760Y-95444832D01*
X141378760Y-95444832D02*
X141322193Y-95342025D01*
X148451520Y-95574676D02*
X148432276Y-95560405D01*
X123247276Y-120331786D02*
X123292483Y-120344020D01*
X158444364Y-95524204D02*
X158429056Y-95387798D01*
X124258740Y-120111415D02*
X124288244Y-120080896D01*
X150652607Y-93014521D02*
X150618906Y-93041282D01*
X139538692Y-73537404D02*
X139511905Y-73496114D01*
X154675766Y-78029275D02*
X154633968Y-78006524D01*
X154997498Y-113856342D02*
X155235622Y-114015093D01*
X151515523Y-94584122D02*
X151533686Y-94559402D01*
X134711263Y-93222335D02*
X134651297Y-93337653D01*
X146319117Y-90753907D02*
X146284560Y-90757179D01*
X161029486Y-93829279D02*
X161020627Y-93883279D01*
X154220614Y-78167311D02*
X154189170Y-78188819D01*
X148293254Y-95493696D02*
X148238040Y-95477777D01*
X154410233Y-77803767D02*
X154393067Y-77870880D01*
X123050055Y-120232644D02*
X123084973Y-120257689D01*
X150593742Y-78051974D02*
X150575629Y-78047526D01*
X151210644Y-78285114D02*
X151083893Y-78269421D01*
X148335668Y-97540522D02*
X148324959Y-97593458D01*
X133650638Y-94411526D02*
X133670336Y-94402188D01*
X147435599Y-90758456D02*
X147230180Y-90780965D01*
X150575629Y-78047526D02*
X150557274Y-78043914D01*
X156315331Y-77993998D02*
X156287282Y-78007231D01*
X154189170Y-78188819D02*
X154156190Y-78206098D01*
X143618264Y-93081845D02*
X143597560Y-93062597D01*
X151544740Y-94387074D02*
X151533396Y-94354883D01*
X132112727Y-93330144D02*
X132077581Y-93368756D01*
X156451941Y-77907913D02*
X156398305Y-77945813D01*
X142491014Y-94624147D02*
X142516936Y-94643948D01*
X127150005Y-120522052D02*
X127280121Y-120517168D01*
X149297112Y-96643934D02*
X149261498Y-96580973D01*
X154396241Y-94889203D02*
X154158116Y-93777952D01*
X148178445Y-95464525D02*
X148114504Y-95453641D01*
X149729664Y-114988829D02*
X149747354Y-114982890D01*
X140940918Y-94963242D02*
X140887716Y-94949423D01*
X139282031Y-115618716D02*
X139300888Y-115570618D01*
X148305457Y-97353518D02*
X148326733Y-97420515D01*
X155059251Y-78146556D02*
X154958070Y-78128666D01*
X158327820Y-111957750D02*
X158341439Y-111948848D01*
X147727086Y-90749793D02*
X147692977Y-90745983D01*
X150732349Y-78110372D02*
X150698468Y-78092820D01*
X147777252Y-93480577D02*
X147911062Y-93410484D01*
X144520006Y-114888211D02*
X144599380Y-114888211D01*
X153206518Y-78171790D02*
X153153710Y-78178839D01*
X145635675Y-95840016D02*
X145616095Y-95823787D01*
X143385751Y-92971995D02*
X143371475Y-92973769D01*
X142472439Y-94600917D02*
X142491014Y-94624147D01*
X150184937Y-115069853D02*
X150226561Y-115090294D01*
X150698468Y-78092820D02*
X150664180Y-78076913D01*
X145301303Y-95856949D02*
X145261170Y-95885075D01*
X149410127Y-93308692D02*
X149489940Y-93355604D01*
X146794907Y-115113001D02*
X146894356Y-115100258D01*
X156424643Y-94890356D02*
X156240220Y-94929464D01*
X133513843Y-94517592D02*
X133541315Y-94489702D01*
X138961249Y-115980348D02*
X139002349Y-115953203D01*
X143246097Y-93023788D02*
X143224929Y-93038545D01*
X146006131Y-114910589D02*
X146029066Y-114958146D01*
X140568347Y-95009436D02*
X140514445Y-95036724D01*
X147317780Y-97063879D02*
X147335787Y-97032843D01*
X134877641Y-93861912D02*
X134934931Y-93826685D01*
X157637655Y-94627252D02*
X157551784Y-94631776D01*
X146370116Y-97607309D02*
X146329439Y-97622098D01*
X148760940Y-115235855D02*
X148891056Y-115230971D01*
X153564081Y-78187308D02*
X153464632Y-78174565D01*
X136781023Y-96264890D02*
X136774950Y-96419628D01*
X154679993Y-113856342D02*
X154759369Y-113856342D01*
X151036625Y-93330223D02*
X151000921Y-93242550D01*
X129814688Y-120174407D02*
X129814688Y-119856915D01*
X128878064Y-120448967D02*
X128901694Y-120447856D01*
X135229173Y-93706907D02*
X135266887Y-93698585D01*
X163252492Y-107744465D02*
X163490616Y-107744465D01*
X144156040Y-114962327D02*
X144183980Y-114968265D01*
X163490616Y-107744465D02*
X163728740Y-106791964D01*
X142508347Y-94361742D02*
X142488753Y-94402491D01*
X159680617Y-110919467D02*
X159783027Y-110914556D01*
X131464579Y-94055313D02*
X131418122Y-94080908D01*
X137251247Y-96556083D02*
X137648121Y-96159207D01*
X139466022Y-73406826D02*
X139447165Y-73358728D01*
X156678896Y-77687885D02*
X156640876Y-77732511D01*
X158228232Y-112000731D02*
X158265041Y-111988181D01*
X133570020Y-94464360D02*
X133599987Y-94441728D01*
X161299603Y-93313726D02*
X161262599Y-93355112D01*
X148530660Y-95661769D02*
X148517123Y-95642129D01*
X151338728Y-78296997D02*
X151210644Y-78285114D01*
X146164912Y-90813974D02*
X146153214Y-90835381D01*
X156063114Y-94955041D02*
X154396241Y-94889203D01*
X158366405Y-111929274D02*
X158377814Y-111918538D01*
X138997494Y-97032331D02*
X138999714Y-96207347D01*
X145636865Y-96137276D02*
X145655688Y-96105644D01*
X149983240Y-78222611D02*
X149961163Y-78227838D01*
X144440632Y-114888211D02*
X144520006Y-114888211D01*
X150651506Y-115135178D02*
X150706956Y-115118963D01*
X143109753Y-93190775D02*
X143100641Y-93213148D01*
X163093744Y-108379465D02*
X163252492Y-107744465D01*
X145067134Y-96091193D02*
X145037027Y-96138371D01*
X145414328Y-95802987D02*
X145378030Y-95816145D01*
X145037027Y-96138371D02*
X145009376Y-96187432D01*
X132583765Y-93042685D02*
X132523682Y-93060499D01*
X130003645Y-94302684D02*
X129300000Y-94317813D01*
X154459809Y-77869006D02*
X154433381Y-77837072D01*
X143695623Y-95781247D02*
X143726077Y-95661383D01*
X133487574Y-94547871D02*
X133513843Y-94517592D01*
X142718624Y-94045352D02*
X142650223Y-94138993D01*
X149765246Y-114977667D02*
X149783359Y-114973219D01*
X143341763Y-92980239D02*
X143326293Y-92985009D01*
X158429056Y-95387798D02*
X158406966Y-95264853D01*
X149261498Y-96580973D02*
X149223361Y-96518827D01*
X158417026Y-111868544D02*
X158425379Y-111854126D01*
X140834622Y-94943578D02*
X140781567Y-94945005D01*
X132187837Y-93256776D02*
X132149408Y-93292754D01*
X123387017Y-120361258D02*
X123435934Y-120366354D01*
X147728748Y-96476707D02*
X146696873Y-96635455D01*
X145220053Y-95918668D02*
X145178101Y-95957968D01*
X150226561Y-115090294D02*
X150268470Y-115109687D01*
X162142573Y-92927845D02*
X162028817Y-92946458D01*
X147152470Y-115097483D02*
X147205278Y-115104532D01*
X143784763Y-95526481D02*
X143807888Y-95495420D01*
X161977187Y-92180940D02*
X162011967Y-92240677D01*
X134011960Y-93695146D02*
X133953345Y-93668116D01*
X133670336Y-94402188D02*
X133690323Y-94393875D01*
X146284560Y-90757179D02*
X146253241Y-90762773D01*
X153124234Y-94685192D02*
X153055603Y-94669312D01*
X141322193Y-95342025D02*
X141266290Y-95252792D01*
X133187447Y-93128782D02*
X133115685Y-93093094D01*
X151425623Y-114570718D02*
X153489373Y-114411970D01*
X140161919Y-73924216D02*
X140062097Y-73894813D01*
X153145598Y-95453097D02*
X153260620Y-96083749D01*
X145474160Y-96290125D02*
X145516338Y-96261061D01*
X145421195Y-93065808D02*
X145495847Y-93079291D01*
X144553743Y-97826080D02*
X144469362Y-97828216D01*
X161935062Y-91844971D02*
X161925028Y-91898863D01*
X128190779Y-120255804D02*
X128209396Y-120253088D01*
X138874471Y-116029222D02*
X138961249Y-115980348D01*
X157801224Y-94634773D02*
X157720901Y-94628057D01*
X127776527Y-120450343D02*
X127812029Y-120434887D01*
X147692977Y-90745983D02*
X147655985Y-90744298D01*
X149626639Y-115036065D02*
X149660520Y-115018513D01*
X156552655Y-77822903D02*
X156503579Y-77866598D01*
X147003400Y-93924594D02*
X147060055Y-93919698D01*
X161933639Y-92065130D02*
X161951262Y-92122463D01*
X151225896Y-93842045D02*
X151206748Y-93803255D01*
X160759630Y-110539215D02*
X160791105Y-110502216D01*
X147852982Y-96836194D02*
X147986252Y-96952744D01*
X147570000Y-96714822D02*
X147728740Y-96714822D01*
X127664160Y-120481311D02*
X127683615Y-120478108D01*
X142592715Y-94672334D02*
X142643518Y-94680455D01*
X145516338Y-96261061D02*
X145553550Y-96231005D01*
X147014371Y-90795022D02*
X146902803Y-90793784D01*
X124662211Y-120441173D02*
X124699469Y-120447731D01*
X142586585Y-94230966D02*
X142531499Y-94319417D01*
X150017463Y-114993697D02*
X150059861Y-115010285D01*
X143488350Y-92988014D02*
X143476490Y-92983418D01*
X133373225Y-94729485D02*
X133415685Y-94651436D01*
X158343624Y-95057023D02*
X158302966Y-94970976D01*
X146053812Y-114999839D02*
X146080316Y-115035994D01*
X134188224Y-94314520D02*
X134231053Y-94301638D01*
X124288244Y-120080896D02*
X124314672Y-120048962D01*
X159886835Y-110905542D02*
X159991083Y-110892029D01*
X148443122Y-96794205D02*
X147728748Y-96476707D01*
X153259005Y-78167712D02*
X153206518Y-78171790D01*
X143680620Y-93142956D02*
X143638915Y-93101851D01*
X159025827Y-95362831D02*
X158713691Y-95443602D01*
X142985124Y-93647798D02*
X142975131Y-93669804D01*
X140781567Y-94945005D02*
X140728482Y-94953004D01*
X146328643Y-96741967D02*
X146373346Y-96828795D01*
X154918122Y-114094467D02*
X154997498Y-113856342D01*
X133196069Y-95272834D02*
X133217552Y-95179748D01*
X141911530Y-74880072D02*
X141898980Y-74843263D01*
X144757811Y-93184842D02*
X144836469Y-93149107D01*
X151131903Y-93604565D02*
X151070076Y-93421943D01*
X133894258Y-93635045D02*
X133774309Y-93554365D01*
X133393788Y-93260513D02*
X133257658Y-93169178D01*
X144076857Y-97821004D02*
X144030214Y-97810947D01*
X161041811Y-93777952D02*
X161029486Y-93829279D01*
X158148610Y-94777339D02*
X158087354Y-94732359D01*
X145593909Y-95810394D02*
X145569265Y-95800076D01*
X143597560Y-93062597D02*
X143576663Y-93044400D01*
X146213306Y-91113009D02*
X146244925Y-91174286D01*
X131826110Y-93698753D02*
X131763679Y-93780122D01*
X132967149Y-93039425D02*
X132890196Y-93023237D01*
X143476490Y-92983418D02*
X143464389Y-92979490D01*
X125489048Y-120379602D02*
X125541535Y-120383680D01*
X156150604Y-94944234D02*
X156063114Y-94955041D01*
X146471407Y-97064240D02*
X146492405Y-97134215D01*
X129363178Y-120300869D02*
X129469873Y-120257617D01*
X146507723Y-97199856D02*
X146517460Y-97261115D01*
X139418219Y-73255376D02*
X139408370Y-73200022D01*
X156950230Y-77803768D02*
X156870854Y-77803768D01*
X158489992Y-111633842D02*
X158569368Y-111633842D01*
X153267823Y-94707320D02*
X153124234Y-94685192D01*
X144621864Y-97417668D02*
X144597158Y-97457409D01*
X160809373Y-94695348D02*
X160757243Y-94737497D01*
X145518386Y-97402654D02*
X145426870Y-97349829D01*
X162091931Y-91529705D02*
X162057052Y-91581857D01*
X143576663Y-93044400D02*
X143555434Y-93027549D01*
X147848112Y-91007803D02*
X147860460Y-90963113D01*
X149247927Y-93227576D02*
X149329364Y-93265939D01*
X147830222Y-90791585D02*
X147809879Y-90776623D01*
X150512629Y-115161659D02*
X150536641Y-115158978D01*
X147660865Y-97835050D02*
X147597954Y-97817996D01*
X142773321Y-94683397D02*
X142853268Y-94677754D01*
X128154311Y-120263864D02*
X128172424Y-120259416D01*
X149423562Y-96898656D02*
X149362617Y-96771249D01*
X155586045Y-78087972D02*
X155544337Y-78105193D01*
X134301104Y-93708346D02*
X134243500Y-93724952D01*
X155455570Y-78132130D02*
X155408921Y-78141938D01*
X148597052Y-95864653D02*
X148592866Y-95834498D01*
X156805935Y-94790136D02*
X156614007Y-94842365D01*
X142462136Y-94478335D02*
X142456059Y-94512966D01*
X146154836Y-90963843D02*
X146168492Y-91008067D01*
X143688774Y-94817408D02*
X143712792Y-94659411D01*
X146060511Y-97621401D02*
X145994306Y-97605996D01*
X147378351Y-97696671D02*
X147335539Y-97652877D01*
X151552876Y-94418368D02*
X151544740Y-94387074D01*
X151007898Y-78251666D02*
X150971526Y-78238453D01*
X151416784Y-94146111D02*
X151367481Y-94071936D01*
X144397365Y-93434252D02*
X144464802Y-93375927D01*
X152436651Y-94539098D02*
X152464237Y-94570894D01*
X161379002Y-93238001D02*
X161338431Y-93274707D01*
X143639045Y-96416284D02*
X143643783Y-96241927D01*
X142171512Y-75086143D02*
X142130756Y-75075038D01*
X137100000Y-117700000D02*
X138069682Y-116205664D01*
X140575961Y-73988863D02*
X140472153Y-73979849D01*
X139431191Y-73308261D02*
X139418219Y-73255376D01*
X152599558Y-94413566D02*
X152556116Y-94364022D01*
X149002335Y-93141150D02*
X149084136Y-93164949D01*
X158302966Y-94970976D02*
X158256714Y-94896067D01*
X142488753Y-94402491D02*
X142473192Y-94441432D01*
X133968247Y-94345239D02*
X134056824Y-94337309D01*
X124374130Y-120143037D02*
X124395196Y-120196786D01*
X143187702Y-93071277D02*
X143171444Y-93089129D01*
X146310404Y-115161534D02*
X146348977Y-115165174D01*
X143888312Y-97745036D02*
X143871621Y-97730975D01*
X156712106Y-77645017D02*
X156678896Y-77687885D01*
X152123398Y-78299850D02*
X151860167Y-78310563D01*
X143399663Y-92971146D02*
X143385751Y-92971995D01*
X151246755Y-114917351D02*
X151304619Y-114904204D01*
X143638915Y-93101851D02*
X143618264Y-93081845D01*
X127683615Y-120478108D02*
X127702752Y-120474041D01*
X152446976Y-94189574D02*
X152418090Y-94122489D01*
X145299737Y-115072249D02*
X145400918Y-115054359D01*
X161605228Y-93087250D02*
X161510384Y-93141212D01*
X153576698Y-94715818D02*
X153418990Y-94717263D01*
X146515319Y-115157084D02*
X146604947Y-115144032D01*
X147301245Y-97095258D02*
X147317780Y-97063879D01*
X143924707Y-97769395D02*
X143906029Y-97757824D01*
X124191330Y-120168021D02*
X124226367Y-120140472D01*
X150274184Y-97852645D02*
X150278997Y-97852972D01*
X150283209Y-97853498D01*
X150286842Y-97854204D01*
X150289917Y-97855075D01*
X150292458Y-97856093D01*
X150294484Y-97857241D01*
X150296020Y-97858502D01*
X150297085Y-97859861D01*
X150297702Y-97861299D01*
X150297894Y-97862800D01*
X150297682Y-97864347D01*
X150297087Y-97865923D01*
X150296132Y-97867511D01*
X150294839Y-97869095D01*
X150293229Y-97870658D01*
X150291325Y-97872183D01*
X150289147Y-97873652D01*
X150286719Y-97875049D01*
X150284062Y-97876358D01*
X150281198Y-97877560D01*
X150278149Y-97878641D01*
X150274937Y-97879582D01*
X150271583Y-97880366D01*
X150268109Y-97880977D01*
X150264538Y-97881399D01*
X150260891Y-97881613D01*
X150257191Y-97881604D01*
X150253458Y-97881354D01*
X150249715Y-97880847D01*
X150245984Y-97880066D01*
X150242287Y-97878993D01*
X150268748Y-97852532D01*
X150274184Y-97852645D01*
X145655688Y-96105644D02*
X145670281Y-96074215D01*
X146996196Y-115092853D02*
X147047874Y-115091971D01*
X141156197Y-95112247D02*
X141101868Y-95059536D01*
X147993743Y-94161232D02*
X148213912Y-94254165D01*
X158087354Y-94732359D02*
X158021690Y-94696193D01*
X158481024Y-111683244D02*
X158489992Y-111633842D01*
X153806873Y-114173846D02*
X153648121Y-114332594D01*
X148277265Y-97685011D02*
X148241911Y-97723556D01*
X127409325Y-120508887D02*
X127537409Y-120497004D01*
X155361036Y-78149368D02*
X155312119Y-78154464D01*
X149166092Y-93193835D02*
X149247927Y-93227576D01*
X137075510Y-95016264D02*
X137035969Y-95098306D01*
X148647069Y-97487632D02*
X148152269Y-97785995D01*
X148241911Y-97723556D02*
X148199974Y-97757229D01*
X152737646Y-94747594D02*
X152789610Y-94765916D01*
X143907047Y-114833606D02*
X143960683Y-114871506D01*
X144854163Y-96625918D02*
X144801149Y-96856923D01*
X143456493Y-75819398D02*
X143377116Y-75819398D01*
X158265041Y-111988181D02*
X158282044Y-111981287D01*
X130370816Y-94296338D02*
X130188090Y-94301946D01*
X154156190Y-78206098D02*
X154121729Y-78219477D01*
X142650223Y-94138993D02*
X142586585Y-94230966D01*
X149930457Y-114970248D02*
X149952545Y-114974643D01*
X158206249Y-95603580D02*
X158285625Y-95286082D01*
X148661821Y-94467754D02*
X148886576Y-94584752D01*
X146373346Y-96828795D02*
X146411975Y-96911482D01*
X147234796Y-97351304D02*
X147243020Y-97274210D01*
X149893261Y-78236719D02*
X149869989Y-78237077D01*
X143533732Y-93012339D02*
X143522660Y-93005440D01*
X153568744Y-114650095D02*
X153965616Y-114570718D01*
X144319233Y-114963161D02*
X144344902Y-114954276D01*
X154759369Y-113856342D02*
X154838746Y-114094467D01*
X146469436Y-93511194D02*
X146538123Y-93539828D01*
X160875958Y-94631500D02*
X160857094Y-94651507D01*
X145903118Y-96317957D02*
X145823744Y-96317957D01*
X142854565Y-93860477D02*
X142718624Y-94045352D01*
X137269309Y-94730015D02*
X137215275Y-94794259D01*
X143326293Y-92985009D02*
X143310389Y-92990851D01*
X150815107Y-115080396D02*
X150868295Y-115059039D01*
X148580948Y-95778482D02*
X148573224Y-95752547D01*
X147299194Y-97603626D02*
X147270132Y-97548879D01*
X146277768Y-96651046D02*
X146328643Y-96741967D01*
X153970178Y-78240528D02*
X153929139Y-78239311D01*
X144540929Y-97528730D02*
X144509034Y-97559946D01*
X132149408Y-93292754D02*
X132112727Y-93330144D01*
X143858234Y-95441368D02*
X143912799Y-95388454D01*
X143294034Y-92997802D02*
X143269099Y-93010186D01*
X147262605Y-97191439D02*
X147273444Y-97159041D01*
X152335668Y-93715578D02*
X152332491Y-93619204D01*
X148200094Y-97170928D02*
X148225211Y-97205719D01*
X134231053Y-94301638D02*
X134252204Y-94293871D01*
X143045620Y-97667332D02*
X138270354Y-96918270D01*
X147116656Y-93919537D02*
X147144911Y-93921379D01*
X143045620Y-94651081D02*
X143045620Y-97667332D01*
X147790591Y-97853479D02*
X147725349Y-97846865D01*
X142975131Y-93669804D02*
X142964101Y-93691172D01*
X139754079Y-95416120D02*
X139688572Y-95422695D01*
X161971159Y-91738798D02*
X161950624Y-91791654D01*
X133836815Y-94358135D02*
X133880241Y-94352909D01*
X134128134Y-93727504D02*
X134070193Y-93715241D01*
X148319207Y-95502747D02*
X148293254Y-95493696D01*
X147616334Y-90744472D02*
X147529946Y-90749337D01*
X145594303Y-114995352D02*
X145639581Y-114976028D01*
X148344053Y-95512575D02*
X148319207Y-95502747D01*
X156039755Y-78037468D02*
X156014086Y-78028583D01*
X145099882Y-96046080D02*
X145067134Y-96091193D01*
X146521712Y-97317944D02*
X146520579Y-97370295D01*
X128764813Y-120434501D02*
X128786890Y-120439728D01*
X128901694Y-120447856D02*
X128925706Y-120445175D01*
X148262413Y-93227712D02*
X148334177Y-93195941D01*
X158285625Y-95603580D02*
X158206249Y-95603580D01*
X144660990Y-114946447D02*
X144695908Y-114971492D01*
X137389263Y-94619254D02*
X137327265Y-94671508D01*
X150456877Y-94889894D02*
X150445843Y-94969519D01*
X156902495Y-112983216D02*
X156902495Y-112745091D01*
X148498821Y-115236256D02*
X148630125Y-115237548D01*
X161921076Y-91953444D02*
X161923762Y-92008829D01*
X143522660Y-93005440D02*
X143511417Y-92999062D01*
X124904384Y-120443281D02*
X124994012Y-120430229D01*
X123017810Y-120204899D02*
X123050055Y-120232644D01*
X131219827Y-94159926D02*
X131062340Y-94205019D01*
X139236148Y-115708004D02*
X139260411Y-115664495D01*
X139818306Y-95403515D02*
X139754079Y-95416120D01*
X129693684Y-120190401D02*
X129753227Y-120180521D01*
X161400000Y-109900000D02*
X161885848Y-109526545D01*
X142994180Y-93625217D02*
X142985124Y-93647798D01*
X144127968Y-114954371D02*
X144156040Y-114962327D01*
X149865068Y-93644399D02*
X149933372Y-93711381D01*
X145197754Y-115081907D02*
X145299737Y-115072249D01*
X143060242Y-93356502D02*
X143049837Y-93406275D01*
X146299994Y-94204538D02*
X146400535Y-94156065D01*
X156202948Y-78036634D02*
X156175008Y-78042572D01*
X143712792Y-94659411D02*
X143752019Y-94496960D01*
X127019190Y-120523745D02*
X127150005Y-120522052D01*
X143329384Y-114729461D02*
X143408758Y-114729461D01*
X128742976Y-120428307D02*
X128764813Y-120434501D01*
X129524158Y-120237655D02*
X129579393Y-120219466D01*
X144628745Y-114918702D02*
X144660990Y-114946447D01*
X160652698Y-110637990D02*
X160690307Y-110607053D01*
X145571269Y-93098375D02*
X145647278Y-93122365D01*
X149546520Y-97145283D02*
X149483634Y-97024039D01*
X143499986Y-92993241D02*
X143488350Y-92988014D01*
X144375310Y-97832357D02*
X144275761Y-97834922D01*
X149652032Y-78193270D02*
X149597580Y-78174843D01*
X132354681Y-119221916D02*
X133069058Y-119142539D01*
X150412100Y-94482139D02*
X150433460Y-94564200D01*
X140472153Y-73979849D02*
X140367905Y-73966336D01*
X128831855Y-120446883D02*
X128854792Y-120448609D01*
X147537431Y-97795669D02*
X147480113Y-97768030D01*
X153740668Y-96176783D02*
X154316874Y-96873577D01*
X146254374Y-93407457D02*
X146399126Y-93479125D01*
X142703563Y-94684220D02*
X142773321Y-94683397D01*
X128574002Y-120356050D02*
X128615626Y-120376491D01*
X160613284Y-110667006D02*
X160652698Y-110637990D01*
X144030214Y-97810947D02*
X143985848Y-97797362D01*
X149908106Y-114966999D02*
X149930457Y-114970248D01*
X150761408Y-115100536D02*
X150815107Y-115080396D01*
X154958070Y-78128666D02*
X154859334Y-78102911D01*
X146169818Y-115114512D02*
X146202798Y-115131791D01*
X134533097Y-93518818D02*
X134474682Y-93586457D01*
X137680058Y-94483076D02*
X137600699Y-94505164D01*
X133880241Y-94352909D02*
X133968247Y-94345239D01*
X145553550Y-96231005D02*
X145585944Y-96200196D01*
X143100641Y-93213148D02*
X143084853Y-93259444D01*
X150226081Y-94079624D02*
X150272926Y-94158315D01*
X148190915Y-93262090D02*
X148262413Y-93227712D01*
X150473521Y-78039304D02*
X150450882Y-78041306D01*
X151080808Y-114971420D02*
X151135093Y-114951458D01*
X134273156Y-94285122D02*
X134293889Y-94275315D01*
X123084973Y-120257689D02*
X123122359Y-120280080D01*
X143743882Y-95609946D02*
X143763436Y-95564818D01*
X149148344Y-115210807D02*
X149275095Y-115195114D01*
X160212936Y-95021267D02*
X160051131Y-95079652D01*
X150433460Y-94564200D02*
X150448895Y-94646238D01*
X148411903Y-95547096D02*
X148390405Y-95534713D01*
X141047925Y-95017598D02*
X140994298Y-94985733D01*
X147860460Y-90963113D02*
X147867468Y-90923465D01*
X123983368Y-120281549D02*
X124028646Y-120262225D01*
X151860167Y-78310563D02*
X151728863Y-78311855D01*
X139487642Y-73452605D02*
X139466022Y-73406826D01*
X159363975Y-95277905D02*
X159025827Y-95362831D01*
X148046250Y-95444830D02*
X148647069Y-97487632D01*
X144903418Y-115057823D02*
X144950067Y-115067631D01*
X137106496Y-70818772D02*
X136868372Y-70818772D01*
X147820542Y-96806639D02*
X147852982Y-96836194D01*
X148601875Y-96000457D02*
X148602466Y-95964154D01*
X150450882Y-78041306D02*
X150428531Y-78044555D01*
X156343231Y-77979264D02*
X156315331Y-77993998D01*
X134416606Y-93639994D02*
X134358776Y-93680325D01*
X143413230Y-92971186D02*
X143399663Y-92971146D01*
X143002398Y-93602121D02*
X142994180Y-93625217D01*
X146329439Y-97622098D02*
X146284261Y-97631975D01*
X156598608Y-77777862D02*
X156552655Y-77822903D01*
X162375047Y-92907467D02*
X162258197Y-92914993D01*
X147014373Y-97587947D02*
X147093750Y-97667323D01*
X162028817Y-92946458D02*
X161917565Y-92971269D01*
X162174991Y-92428582D02*
X162095615Y-92746080D01*
X144168357Y-95187681D02*
X144315097Y-95093466D01*
X160934863Y-94541374D02*
X160922439Y-94565301D01*
X149747354Y-114982890D02*
X149765246Y-114977667D01*
X157720901Y-94628057D02*
X157637655Y-94627252D01*
X133148434Y-119142539D02*
X133227811Y-119380664D01*
X153489373Y-114411970D02*
X153489373Y-114094468D01*
X160296891Y-110820506D02*
X160393323Y-110785011D01*
X143071650Y-93307393D02*
X143060242Y-93356502D01*
X149351090Y-115177359D02*
X149387462Y-115164146D01*
X152267221Y-94045701D02*
X152279121Y-94141151D01*
X156398305Y-77945813D02*
X156370912Y-77963160D01*
X145426867Y-96317957D02*
X145474160Y-96290125D01*
X133541315Y-94489702D02*
X133570020Y-94464360D01*
X151206748Y-93803255D02*
X151189766Y-93764480D01*
X147173121Y-93924581D02*
X147366284Y-93959823D01*
X146399126Y-93479125D02*
X146469436Y-93511194D01*
X149822347Y-78233285D02*
X149764172Y-78222989D01*
X152343453Y-93806822D02*
X152335668Y-93715578D01*
X150866993Y-78187300D02*
X150799527Y-78148463D01*
X149788926Y-97463019D02*
X149740238Y-97416396D01*
X126101603Y-120463569D02*
X126361999Y-120491563D01*
X162095615Y-92746080D02*
X162492487Y-92825454D01*
X133462478Y-94580378D02*
X133487574Y-94547871D01*
X139329834Y-115467266D02*
X139339683Y-115411912D01*
X152479696Y-94252125D02*
X152446976Y-94189574D01*
X151367481Y-94071936D02*
X151317441Y-93996229D01*
X139706290Y-73712297D02*
X139668681Y-73681360D01*
X149580170Y-97203691D02*
X149546520Y-97145283D01*
X145683222Y-114954968D02*
X145725020Y-114932217D01*
X140003999Y-95336516D02*
X139943196Y-95363013D01*
X147830201Y-91057802D02*
X147848112Y-91007803D01*
X138283122Y-96873581D02*
X137251247Y-96556083D01*
X147788881Y-96776650D02*
X147820542Y-96806639D01*
X145823744Y-96317957D02*
X145426867Y-96714833D01*
X126361999Y-120491563D02*
X126624655Y-120511740D01*
X148630125Y-115237548D02*
X148760940Y-115235855D01*
X137165043Y-94863726D02*
X137118495Y-94937899D01*
X131550170Y-93997109D02*
X131508525Y-94027316D01*
X143452031Y-92976265D02*
X143439396Y-92973782D01*
X152494452Y-94601113D02*
X152527416Y-94629724D01*
X160094813Y-110873617D02*
X160197069Y-110849909D01*
X150745498Y-92977593D02*
X150715851Y-92983082D01*
X135192642Y-93716369D02*
X135229173Y-93706907D01*
X147122680Y-90790112D02*
X147014371Y-90795022D01*
X149137676Y-96398043D02*
X149089207Y-96339934D01*
X124738042Y-120451371D02*
X124777875Y-120452418D01*
X159883232Y-95134010D02*
X159711341Y-95184840D01*
X148271888Y-97281907D02*
X148305457Y-97353518D01*
X138313165Y-72024402D02*
X137265244Y-71453772D01*
X148326733Y-97420515D02*
X148336531Y-97482862D01*
X133599987Y-94441728D02*
X133631247Y-94421964D01*
X137648121Y-96159207D02*
X138441872Y-96317957D01*
X144315097Y-95093466D02*
X144471873Y-95003095D01*
X146273146Y-115154976D02*
X146310404Y-115161534D01*
X147655985Y-90744298D02*
X147616334Y-90744472D01*
X146855623Y-97587947D02*
X147014371Y-97587947D01*
X148469631Y-95589947D02*
X148451520Y-95574676D01*
X160197069Y-110849909D02*
X160296891Y-110820506D01*
X147712538Y-115177372D02*
X147972934Y-115205366D01*
X158285625Y-95286082D02*
X158285625Y-95603580D01*
X141960345Y-74969321D02*
X141950863Y-74956470D01*
X154633968Y-78006524D02*
X154594219Y-77982127D01*
X155625694Y-78068190D02*
X155586045Y-78087972D01*
X147335787Y-97032843D02*
X147355052Y-97002154D01*
X140994298Y-94985733D02*
X140940918Y-94963242D01*
X152333980Y-94357539D02*
X152350211Y-94396759D01*
X143659799Y-96947568D02*
X143647243Y-96772975D01*
X143760380Y-114703555D02*
X143806333Y-114748596D01*
X156231020Y-78028678D02*
X156202948Y-78036634D01*
X144644546Y-97375448D02*
X144621864Y-97417668D01*
X158377814Y-111918538D02*
X158388550Y-111907129D01*
X155918356Y-77962518D02*
X155838982Y-77962518D01*
X145680794Y-96043230D02*
X145687373Y-96012927D01*
X146485124Y-90758437D02*
X146397023Y-90753209D01*
X155544337Y-78105193D02*
X155500777Y-78119896D01*
X158408125Y-111882163D02*
X158417026Y-111868544D01*
X146202798Y-115131791D02*
X146237259Y-115145170D01*
X146180993Y-90796290D02*
X146164912Y-90813974D01*
X149491995Y-115112993D02*
X149559461Y-115074156D01*
X151189766Y-93764480D02*
X151131903Y-93604565D01*
X150611634Y-78057197D02*
X150593742Y-78051974D01*
X153311114Y-78166278D02*
X153259005Y-78167712D01*
X153568749Y-114094468D02*
X153806873Y-114173846D01*
X139567883Y-73576523D02*
X139538692Y-73537404D01*
X146464160Y-97533950D02*
X146437575Y-97563187D01*
X128049585Y-120304710D02*
X128083873Y-120288803D01*
X152902897Y-78217518D02*
X152646450Y-78251679D01*
X132647513Y-93028000D02*
X132583765Y-93042685D01*
X133227811Y-119380664D02*
X133307187Y-119380664D01*
X151462663Y-94218298D02*
X151416784Y-94146111D01*
X128015704Y-120322262D02*
X128049585Y-120304710D01*
X156370912Y-77963160D02*
X156343231Y-77979264D01*
X157551784Y-94631776D02*
X157463584Y-94641048D01*
X143912799Y-95388454D02*
X144033606Y-95285943D01*
X161014515Y-93939474D02*
X161010427Y-93997384D01*
X136774950Y-96419628D02*
X136775010Y-96556088D01*
X152464237Y-94570894D02*
X152494452Y-94601113D01*
X148238040Y-95477777D02*
X148178445Y-95464525D01*
X153153710Y-78178839D02*
X152902897Y-78217518D01*
X144417882Y-114909565D02*
X144440632Y-114888211D01*
X161194383Y-93445203D02*
X161163330Y-93494017D01*
X147758212Y-96746092D02*
X147788881Y-96776650D01*
X150090518Y-78183994D02*
X150048132Y-78201534D01*
X152386054Y-78279673D02*
X152123398Y-78299850D01*
X142216466Y-75096054D02*
X142171512Y-75086143D01*
X147846564Y-90809997D02*
X147830222Y-90791585D01*
X141710243Y-75025648D02*
X141313367Y-74628772D01*
X128209396Y-120253088D02*
X128228294Y-120251331D01*
X161885848Y-109526545D02*
X162045823Y-108950095D01*
X145426870Y-97349829D02*
X145664994Y-97270456D01*
X152602067Y-94682001D02*
X152643994Y-94705605D01*
X146612327Y-94051815D02*
X146667020Y-94026981D01*
X130188090Y-94301946D02*
X130003645Y-94302684D01*
X152863918Y-94601212D02*
X152805190Y-94571362D01*
X148305219Y-97641633D02*
X148277265Y-97685011D01*
X160509871Y-94890424D02*
X160366549Y-94958357D01*
X144748605Y-97080261D02*
X144718777Y-97185420D01*
X157463584Y-94641048D02*
X157373353Y-94654489D01*
X150132427Y-78164601D02*
X150090518Y-78183994D01*
X140434888Y-114236292D02*
X141482809Y-113665662D01*
X150868295Y-115059039D02*
X150974113Y-115014672D01*
X144394297Y-114927607D02*
X144417882Y-114909565D01*
X160922439Y-94565301D02*
X160908541Y-94588337D01*
X124226367Y-120140472D02*
X124258740Y-120111415D01*
X161338431Y-93274707D02*
X161299603Y-93313726D01*
X150385090Y-94400288D02*
X150412100Y-94482139D01*
X145764769Y-114907820D02*
X145802265Y-114881824D01*
X146411975Y-96911482D02*
X146444629Y-96989980D01*
X144043657Y-114919691D02*
X144071706Y-114932924D01*
X139339683Y-115411912D02*
X140274913Y-114812742D01*
X149036372Y-96283699D02*
X148978711Y-96229602D01*
X147776794Y-91174785D02*
X147806502Y-91113374D01*
X141075243Y-74708149D02*
X140678371Y-74470024D01*
X150936024Y-78222997D02*
X150901233Y-78205784D01*
X132523682Y-93060499D02*
X132467051Y-93081250D01*
X151728863Y-78311855D02*
X151598048Y-78310162D01*
X149387462Y-115164146D02*
X149422964Y-115148690D01*
X143156625Y-93107890D02*
X143143145Y-93127496D01*
X142943876Y-94667059D02*
X143045620Y-94651081D01*
X155838982Y-77962518D02*
X155759608Y-77962518D01*
X149275095Y-115195114D02*
X149294550Y-115191911D01*
X134314386Y-94264376D02*
X134377962Y-94226464D01*
X162024927Y-91634013D02*
X161996111Y-91686289D01*
X143310389Y-92990851D02*
X143294034Y-92997802D01*
X150557274Y-78043914D02*
X150538657Y-78041198D01*
X125845156Y-120429408D02*
X126101603Y-120463569D01*
X153843669Y-78231391D02*
X153754041Y-78218339D01*
X146538123Y-93698581D02*
X143680622Y-94968579D01*
X138045071Y-94488173D02*
X137946442Y-94471850D01*
X146138374Y-115093004D02*
X146169818Y-115114512D01*
X139632997Y-73648451D02*
X139599358Y-73613522D01*
X150352706Y-94318879D02*
X150385090Y-94400288D01*
X156902495Y-112745091D02*
X156981872Y-112745091D01*
X150458126Y-94728022D02*
X150460879Y-94809318D01*
X135122860Y-93738500D02*
X135157226Y-93726918D01*
X124558883Y-120400709D02*
X124591863Y-120417988D01*
X146890263Y-93946701D02*
X146946774Y-93933752D01*
X147920084Y-97851250D02*
X147855774Y-97854929D01*
X147270132Y-97548879D02*
X147249168Y-97488601D01*
X132077581Y-93368756D02*
X132011042Y-93448882D01*
X128786890Y-120439728D02*
X128809229Y-120443889D01*
X144469362Y-97828216D02*
X144375310Y-97832357D01*
X147456091Y-115143211D02*
X147712538Y-115177372D01*
X133257658Y-93169178D02*
X133187447Y-93128782D01*
X142455435Y-94545095D02*
X142460737Y-94574489D01*
X158354290Y-111939367D02*
X158366405Y-111929274D01*
X155408921Y-78141938D02*
X155361036Y-78149368D01*
X158341439Y-111948848D02*
X158354290Y-111939367D01*
X155989041Y-78016775D02*
X155964691Y-78001914D01*
X132315743Y-93159225D02*
X132270791Y-93189821D01*
X137455422Y-94573769D02*
X137389263Y-94619254D01*
X154838746Y-114094467D02*
X154918122Y-114094467D01*
X131589729Y-93964881D02*
X131550170Y-93997109D01*
X145639581Y-114976028D02*
X145683222Y-114954968D01*
X146437575Y-97563187D02*
X146406194Y-97587655D01*
X154237497Y-93777954D02*
X154158121Y-93698581D01*
X150538657Y-78041198D02*
X150519759Y-78039441D01*
X154158121Y-93698581D02*
X154237497Y-93777954D01*
X148144717Y-97104732D02*
X148173191Y-97137310D01*
X144684589Y-97284301D02*
X144644546Y-97375448D01*
X124994012Y-120430229D02*
X125183972Y-120399198D01*
X150460879Y-94809318D02*
X150456877Y-94889894D01*
X148933365Y-77962517D02*
X148933365Y-77645025D01*
X145084100Y-93075530D02*
X145170257Y-93063202D01*
X129753227Y-120180521D02*
X129814688Y-120174407D01*
X139447165Y-73358728D02*
X139431191Y-73308261D01*
X143119808Y-93169000D02*
X143109753Y-93190775D01*
X144266302Y-114972679D02*
X144293009Y-114969252D01*
X151317441Y-93996229D02*
X151269350Y-93919447D01*
%LPC*%
D11*
X147400000Y-68100000D02*
X149012556Y-67791311D01*
X148611707Y-69284425D01*
X150751328Y-70691311D01*
X148478072Y-72063016D01*
X148851328Y-73791311D01*
X147378140Y-73402776D01*
X146015123Y-84162275D01*
X144638772Y-73296581D01*
X143212556Y-73894730D01*
X143415126Y-72045650D01*
X141012556Y-70594730D01*
X143281491Y-69301788D01*
X142951328Y-67694730D01*
X144616914Y-68206194D01*
X146012556Y-63294730D01*
X147400000Y-68100000D01*
G36*
X147400000Y-68100000D02*
G01*
X149012556Y-67791311D01*
X148611707Y-69284425D01*
X150751328Y-70691311D01*
X148478072Y-72063016D01*
X148851328Y-73791311D01*
X147378140Y-73402776D01*
X146015123Y-84162275D01*
X144638772Y-73296581D01*
X143212556Y-73894730D01*
X143415126Y-72045650D01*
X141012556Y-70594730D01*
X143281491Y-69301788D01*
X142951328Y-67694730D01*
X144616914Y-68206194D01*
X146012556Y-63294730D01*
X147400000Y-68100000D01*
G37*
D12*
%TO.C,*%
X146100000Y-60000000D03*
%TD*%
D13*
%TO.C,SW1*%
X134450000Y-115460000D03*
X131450000Y-115460000D03*
%TD*%
D14*
%TO.C,D3*%
X151000000Y-73200000D03*
D15*
X153540000Y-73200000D03*
%TD*%
D14*
%TO.C,D2*%
X135160000Y-87400000D03*
D15*
X137700000Y-87400000D03*
%TD*%
D14*
%TO.C,D1*%
X161940000Y-107500000D03*
D15*
X159400000Y-107500000D03*
%TD*%
%LPD*%
M02*
