%TF.GenerationSoftware,KiCad,Pcbnew,8.0.4*%
%TF.CreationDate,2024-12-02T20:50:40-07:00*%
%TF.ProjectId,tree,74726565-2e6b-4696-9361-645f70636258,rev?*%
%TF.SameCoordinates,Original*%
%TF.FileFunction,Copper,L2,Bot*%
%TF.FilePolarity,Positive*%
%FSLAX46Y46*%
G04 Gerber Fmt 4.6, Leading zero omitted, Abs format (unit mm)*
G04 Created by KiCad (PCBNEW 8.0.4) date 2024-12-02 20:50:40*
%MOMM*%
%LPD*%
G01*
G04 APERTURE LIST*
G04 Aperture macros list*
%AMRoundRect*
0 Rectangle with rounded corners*
0 $1 Rounding radius*
0 $2 $3 $4 $5 $6 $7 $8 $9 X,Y pos of 4 corners*
0 Add a 4 corners polygon primitive as box body*
4,1,4,$2,$3,$4,$5,$6,$7,$8,$9,$2,$3,0*
0 Add four circle primitives for the rounded corners*
1,1,$1+$1,$2,$3*
1,1,$1+$1,$4,$5*
1,1,$1+$1,$6,$7*
1,1,$1+$1,$8,$9*
0 Add four rect primitives between the rounded corners*
20,1,$1+$1,$2,$3,$4,$5,0*
20,1,$1+$1,$4,$5,$6,$7,0*
20,1,$1+$1,$6,$7,$8,$9,0*
20,1,$1+$1,$8,$9,$2,$3,0*%
G04 Aperture macros list end*
%ADD10C,0.300000*%
%TA.AperFunction,ComponentPad*%
%ADD11C,5.000000*%
%TD*%
%TA.AperFunction,SMDPad,CuDef*%
%ADD12R,0.700000X1.500000*%
%TD*%
%TA.AperFunction,SMDPad,CuDef*%
%ADD13R,3.500000X3.300000*%
%TD*%
%TA.AperFunction,SMDPad,CuDef*%
%ADD14C,10.200000*%
%TD*%
%TA.AperFunction,ComponentPad*%
%ADD15R,1.800000X1.800000*%
%TD*%
%TA.AperFunction,ComponentPad*%
%ADD16C,1.800000*%
%TD*%
%TA.AperFunction,SMDPad,CuDef*%
%ADD17RoundRect,0.250000X0.350000X0.450000X-0.350000X0.450000X-0.350000X-0.450000X0.350000X-0.450000X0*%
%TD*%
%TA.AperFunction,SMDPad,CuDef*%
%ADD18RoundRect,0.250000X-0.450000X0.350000X-0.450000X-0.350000X0.450000X-0.350000X0.450000X0.350000X0*%
%TD*%
%TA.AperFunction,ViaPad*%
%ADD19C,0.600000*%
%TD*%
%TA.AperFunction,Conductor*%
%ADD20C,0.200000*%
%TD*%
G04 APERTURE END LIST*
D10*
G36*
X162147735Y-116099962D02*
G01*
X162450443Y-116281587D01*
X162632068Y-116584296D01*
X162692517Y-116886542D01*
X162632068Y-117188788D01*
X162450443Y-117491497D01*
X162147736Y-117673122D01*
X161845488Y-117733571D01*
X161543241Y-117673122D01*
X161240532Y-117491496D01*
X161058908Y-117188789D01*
X160998458Y-116886542D01*
X161058908Y-116584294D01*
X161145959Y-116439210D01*
X161410952Y-116439210D01*
X161415101Y-116497590D01*
X161441275Y-116549939D01*
X161485490Y-116588286D01*
X161541013Y-116606793D01*
X161599393Y-116602644D01*
X161626856Y-116592135D01*
X161738041Y-116536542D01*
X161952935Y-116536542D01*
X162042349Y-116581249D01*
X162150781Y-116689681D01*
X162195488Y-116779094D01*
X162195488Y-116993990D01*
X162150781Y-117083403D01*
X162042350Y-117191835D01*
X161952936Y-117236542D01*
X161738041Y-117236542D01*
X161626856Y-117180950D01*
X161599392Y-117170440D01*
X161541012Y-117166292D01*
X161485490Y-117184800D01*
X161441275Y-117223147D01*
X161415100Y-117275496D01*
X161410952Y-117333876D01*
X161429460Y-117389398D01*
X161467807Y-117433613D01*
X161492692Y-117449278D01*
X161635550Y-117520706D01*
X161663013Y-117531216D01*
X161668388Y-117531597D01*
X161673367Y-117533660D01*
X161702631Y-117536542D01*
X161988345Y-117536542D01*
X162017609Y-117533660D01*
X162022587Y-117531597D01*
X162027963Y-117531216D01*
X162055426Y-117520706D01*
X162198285Y-117449278D01*
X162210876Y-117441351D01*
X162214538Y-117439835D01*
X162218660Y-117436451D01*
X162223170Y-117433613D01*
X162225764Y-117430621D01*
X162237269Y-117421180D01*
X162380126Y-117278323D01*
X162389569Y-117266816D01*
X162392559Y-117264224D01*
X162395395Y-117259718D01*
X162398781Y-117255593D01*
X162400298Y-117251929D01*
X162408224Y-117239339D01*
X162479652Y-117096481D01*
X162490162Y-117069018D01*
X162490543Y-117063642D01*
X162492606Y-117058664D01*
X162495488Y-117029400D01*
X162495488Y-116743685D01*
X162492606Y-116714421D01*
X162490543Y-116709442D01*
X162490162Y-116704067D01*
X162479652Y-116676604D01*
X162408224Y-116533746D01*
X162400298Y-116521155D01*
X162398781Y-116517492D01*
X162395395Y-116513366D01*
X162392559Y-116508861D01*
X162389569Y-116506268D01*
X162380126Y-116494762D01*
X162237269Y-116351905D01*
X162225767Y-116342465D01*
X162223171Y-116339472D01*
X162218657Y-116336631D01*
X162214538Y-116333250D01*
X162210878Y-116331734D01*
X162198285Y-116323807D01*
X162055427Y-116252378D01*
X162027964Y-116241868D01*
X162022586Y-116241485D01*
X162017609Y-116239424D01*
X161988345Y-116236542D01*
X161702631Y-116236542D01*
X161673367Y-116239424D01*
X161668386Y-116241487D01*
X161663012Y-116241869D01*
X161635548Y-116252378D01*
X161492692Y-116323807D01*
X161467806Y-116339472D01*
X161429459Y-116383687D01*
X161410952Y-116439210D01*
X161145959Y-116439210D01*
X161240532Y-116281588D01*
X161543241Y-116099962D01*
X161845488Y-116039512D01*
X162147735Y-116099962D01*
G37*
G36*
X165695489Y-117450828D02*
G01*
X165309470Y-117450828D01*
X165220056Y-117406121D01*
X165183051Y-117369116D01*
X165138346Y-117279704D01*
X165138346Y-117136237D01*
X165183051Y-117046825D01*
X165212229Y-117017647D01*
X165369832Y-116965114D01*
X165695489Y-116965114D01*
X165695489Y-117450828D01*
G37*
G36*
X165695489Y-116665114D02*
G01*
X165380899Y-116665114D01*
X165291485Y-116620406D01*
X165254481Y-116583403D01*
X165209774Y-116493989D01*
X165209774Y-116421952D01*
X165254481Y-116332538D01*
X165291485Y-116295535D01*
X165380899Y-116250828D01*
X165695489Y-116250828D01*
X165695489Y-116665114D01*
G37*
G36*
X166162156Y-118488924D02*
G01*
X154958570Y-118488924D01*
X154958570Y-117010639D01*
X155125237Y-117010639D01*
X155126570Y-117029398D01*
X155125237Y-117048162D01*
X155128626Y-117058329D01*
X155129386Y-117069019D01*
X155137797Y-117085842D01*
X155143745Y-117103684D01*
X155150765Y-117111778D01*
X155155560Y-117121368D01*
X155169772Y-117133694D01*
X155182092Y-117147899D01*
X155196895Y-117157217D01*
X155199775Y-117159715D01*
X155202086Y-117160485D01*
X155206977Y-117163564D01*
X155305112Y-117212631D01*
X155338345Y-117279095D01*
X155338345Y-117957971D01*
X155341227Y-117987235D01*
X155343289Y-117992213D01*
X155343671Y-117997589D01*
X155354181Y-118025053D01*
X155425609Y-118167910D01*
X155428687Y-118172800D01*
X155429458Y-118175112D01*
X155431954Y-118177990D01*
X155441274Y-118192796D01*
X155455481Y-118205117D01*
X155467805Y-118219327D01*
X155482614Y-118228649D01*
X155485489Y-118231142D01*
X155487796Y-118231911D01*
X155492691Y-118234992D01*
X155635547Y-118306421D01*
X155663011Y-118316930D01*
X155668385Y-118317311D01*
X155673366Y-118319375D01*
X155702630Y-118322257D01*
X155774059Y-118322257D01*
X155803323Y-118319375D01*
X155857395Y-118296977D01*
X155898779Y-118255593D01*
X155921177Y-118201521D01*
X155921177Y-118142993D01*
X155898779Y-118088921D01*
X155857395Y-118047537D01*
X155803323Y-118025139D01*
X155774059Y-118022257D01*
X155738040Y-118022257D01*
X155671576Y-117989024D01*
X155638345Y-117922561D01*
X155638345Y-117243685D01*
X155635463Y-117214421D01*
X155633399Y-117209440D01*
X155633018Y-117204066D01*
X155622509Y-117176602D01*
X155551080Y-117033746D01*
X155548344Y-117029399D01*
X155551080Y-117025053D01*
X155622509Y-116882197D01*
X155633018Y-116854733D01*
X155633399Y-116849358D01*
X155635463Y-116844378D01*
X155638345Y-116815114D01*
X155638345Y-116251848D01*
X155981424Y-116251848D01*
X155995949Y-116308544D01*
X156031066Y-116355367D01*
X156081427Y-116385186D01*
X156139365Y-116393463D01*
X156196061Y-116378938D01*
X156221202Y-116363685D01*
X156416916Y-116216899D01*
X156612630Y-116363685D01*
X156637770Y-116378938D01*
X156694467Y-116393462D01*
X156752404Y-116385186D01*
X156802766Y-116355367D01*
X156837883Y-116308544D01*
X156852407Y-116251848D01*
X156844131Y-116193910D01*
X156814312Y-116143549D01*
X156792630Y-116123685D01*
X156506916Y-115909400D01*
X156481775Y-115894147D01*
X156473785Y-115892100D01*
X156466690Y-115887899D01*
X156445662Y-115884895D01*
X156425079Y-115879622D01*
X156416912Y-115880788D01*
X156408753Y-115879623D01*
X156388178Y-115884893D01*
X156367141Y-115887899D01*
X156360045Y-115892100D01*
X156352056Y-115894147D01*
X156326916Y-115909400D01*
X156041202Y-116123685D01*
X156019520Y-116143549D01*
X155989701Y-116193910D01*
X155981424Y-116251848D01*
X155638345Y-116251848D01*
X155638345Y-116136237D01*
X155671576Y-116069774D01*
X155738040Y-116036542D01*
X155774059Y-116036542D01*
X155803323Y-116033660D01*
X155857395Y-116011262D01*
X155898779Y-115969878D01*
X155921177Y-115915806D01*
X155921177Y-115857278D01*
X156912655Y-115857278D01*
X156912655Y-115915806D01*
X156935053Y-115969878D01*
X156976437Y-116011262D01*
X157030509Y-116033660D01*
X157059773Y-116036542D01*
X157095792Y-116036542D01*
X157162256Y-116069774D01*
X157195488Y-116136238D01*
X157195488Y-116815114D01*
X157198370Y-116844378D01*
X157200432Y-116849356D01*
X157200814Y-116854732D01*
X157211324Y-116882196D01*
X157282752Y-117025053D01*
X157285487Y-117029399D01*
X157282752Y-117033746D01*
X157211324Y-117176603D01*
X157200814Y-117204067D01*
X157200432Y-117209442D01*
X157198370Y-117214421D01*
X157195488Y-117243685D01*
X157195488Y-117922560D01*
X157162256Y-117989024D01*
X157095792Y-118022257D01*
X157059773Y-118022257D01*
X157030509Y-118025139D01*
X156976437Y-118047537D01*
X156935053Y-118088921D01*
X156912655Y-118142993D01*
X156912655Y-118201521D01*
X156935053Y-118255593D01*
X156976437Y-118296977D01*
X157030509Y-118319375D01*
X157059773Y-118322257D01*
X157131202Y-118322257D01*
X157160466Y-118319375D01*
X157165446Y-118317311D01*
X157170821Y-118316930D01*
X157198284Y-118306421D01*
X157341141Y-118234992D01*
X157346031Y-118231913D01*
X157348343Y-118231143D01*
X157351221Y-118228646D01*
X157366027Y-118219327D01*
X157378348Y-118205119D01*
X157392558Y-118192796D01*
X157401880Y-118177986D01*
X157404373Y-118175112D01*
X157405142Y-118172804D01*
X157408223Y-118167910D01*
X157479652Y-118025054D01*
X157490161Y-117997590D01*
X157490542Y-117992215D01*
X157492606Y-117987235D01*
X157495488Y-117957971D01*
X157495488Y-117571564D01*
X157841227Y-117571564D01*
X157841227Y-117630092D01*
X157863625Y-117684164D01*
X157905009Y-117725548D01*
X157959081Y-117747946D01*
X157988345Y-117750828D01*
X158702631Y-117750828D01*
X158731895Y-117747946D01*
X158785967Y-117725548D01*
X158827351Y-117684164D01*
X158849749Y-117630092D01*
X158852631Y-117600828D01*
X158852631Y-117592665D01*
X159195710Y-117592665D01*
X159203987Y-117650602D01*
X159233806Y-117700964D01*
X159280628Y-117736081D01*
X159337325Y-117750606D01*
X159395262Y-117742329D01*
X159445624Y-117712510D01*
X159465488Y-117690828D01*
X160004574Y-116972046D01*
X160052631Y-117020103D01*
X160052631Y-117600828D01*
X160055513Y-117630092D01*
X160077911Y-117684164D01*
X160119295Y-117725548D01*
X160173367Y-117747946D01*
X160231895Y-117747946D01*
X160285967Y-117725548D01*
X160327351Y-117684164D01*
X160349749Y-117630092D01*
X160352631Y-117600828D01*
X160352631Y-116886385D01*
X160695488Y-116886385D01*
X160695519Y-116886542D01*
X160695488Y-116886699D01*
X160698401Y-116915960D01*
X160769830Y-117273103D01*
X160775162Y-117290616D01*
X160775708Y-117294283D01*
X160777306Y-117297659D01*
X160778395Y-117301233D01*
X160780457Y-117304312D01*
X160788293Y-117320859D01*
X161002579Y-117678003D01*
X161020107Y-117701613D01*
X161026029Y-117706001D01*
X161030418Y-117711924D01*
X161054028Y-117729452D01*
X161411170Y-117943738D01*
X161427717Y-117951573D01*
X161430797Y-117953636D01*
X161434369Y-117954723D01*
X161437747Y-117956323D01*
X161441414Y-117956868D01*
X161458928Y-117962201D01*
X161816071Y-118033629D01*
X161845332Y-118036542D01*
X161845488Y-118036511D01*
X161845644Y-118036542D01*
X161874905Y-118033629D01*
X162232048Y-117962201D01*
X162249561Y-117956868D01*
X162253229Y-117956323D01*
X162256605Y-117954723D01*
X162260179Y-117953636D01*
X162263258Y-117951573D01*
X162279805Y-117943738D01*
X162636949Y-117729452D01*
X162660559Y-117711924D01*
X162664947Y-117706001D01*
X162670870Y-117701613D01*
X162688398Y-117678002D01*
X162902684Y-117320859D01*
X162910519Y-117304312D01*
X162912582Y-117301233D01*
X162913669Y-117297659D01*
X162915269Y-117294283D01*
X162915814Y-117290615D01*
X162921147Y-117273102D01*
X162992575Y-116915959D01*
X162995488Y-116886698D01*
X162995457Y-116886541D01*
X162995488Y-116886386D01*
X162992575Y-116857125D01*
X162921147Y-116499983D01*
X162915814Y-116482469D01*
X162915269Y-116478802D01*
X162913669Y-116475425D01*
X162912582Y-116471852D01*
X162910519Y-116468772D01*
X162902684Y-116452226D01*
X162691845Y-116100828D01*
X163338346Y-116100828D01*
X163338346Y-117315114D01*
X163341228Y-117344378D01*
X163343290Y-117349356D01*
X163343672Y-117354732D01*
X163354182Y-117382196D01*
X163425610Y-117525053D01*
X163433537Y-117537646D01*
X163435053Y-117541306D01*
X163438434Y-117545425D01*
X163441275Y-117549939D01*
X163444268Y-117552535D01*
X163453708Y-117564037D01*
X163525137Y-117635466D01*
X163536641Y-117644907D01*
X163539236Y-117647899D01*
X163543745Y-117650737D01*
X163547868Y-117654121D01*
X163551529Y-117655637D01*
X163564121Y-117663564D01*
X163706979Y-117734992D01*
X163734442Y-117745502D01*
X163739817Y-117745883D01*
X163744796Y-117747946D01*
X163774060Y-117750828D01*
X164059774Y-117750828D01*
X164089038Y-117747946D01*
X164094016Y-117745883D01*
X164099392Y-117745502D01*
X164126855Y-117734992D01*
X164269714Y-117663564D01*
X164282308Y-117655635D01*
X164285968Y-117654120D01*
X164290088Y-117650738D01*
X164294599Y-117647899D01*
X164297193Y-117644907D01*
X164308699Y-117635465D01*
X164380127Y-117564036D01*
X164389565Y-117552535D01*
X164392559Y-117549939D01*
X164395399Y-117545426D01*
X164398781Y-117541306D01*
X164400296Y-117537646D01*
X164408224Y-117525053D01*
X164479653Y-117382197D01*
X164490162Y-117354733D01*
X164490543Y-117349358D01*
X164492607Y-117344378D01*
X164495489Y-117315114D01*
X164495489Y-117100828D01*
X164838346Y-117100828D01*
X164838346Y-117315114D01*
X164841228Y-117344378D01*
X164843290Y-117349356D01*
X164843672Y-117354732D01*
X164854182Y-117382196D01*
X164925610Y-117525053D01*
X164933537Y-117537646D01*
X164935053Y-117541306D01*
X164938434Y-117545425D01*
X164941275Y-117549939D01*
X164944268Y-117552535D01*
X164953708Y-117564037D01*
X165025137Y-117635466D01*
X165036641Y-117644907D01*
X165039236Y-117647899D01*
X165043745Y-117650737D01*
X165047868Y-117654121D01*
X165051529Y-117655637D01*
X165064121Y-117663564D01*
X165206979Y-117734992D01*
X165234442Y-117745502D01*
X165239817Y-117745883D01*
X165244796Y-117747946D01*
X165274060Y-117750828D01*
X165845489Y-117750828D01*
X165874753Y-117747946D01*
X165928825Y-117725548D01*
X165970209Y-117684164D01*
X165992607Y-117630092D01*
X165995489Y-117600828D01*
X165995489Y-116100828D01*
X165992607Y-116071564D01*
X165970209Y-116017492D01*
X165928825Y-115976108D01*
X165874753Y-115953710D01*
X165845489Y-115950828D01*
X165345489Y-115950828D01*
X165316225Y-115953710D01*
X165311244Y-115955773D01*
X165305870Y-115956155D01*
X165278406Y-115966664D01*
X165135550Y-116038093D01*
X165122956Y-116046020D01*
X165119297Y-116047536D01*
X165115176Y-116050917D01*
X165110664Y-116053758D01*
X165108067Y-116056751D01*
X165096567Y-116066190D01*
X165025138Y-116137618D01*
X165015698Y-116149120D01*
X165012704Y-116151717D01*
X165009862Y-116156231D01*
X165006483Y-116160349D01*
X165004967Y-116164007D01*
X164997039Y-116176603D01*
X164925610Y-116319460D01*
X164915101Y-116346923D01*
X164914719Y-116352297D01*
X164912656Y-116357278D01*
X164909774Y-116386542D01*
X164909774Y-116529400D01*
X164912656Y-116558664D01*
X164914719Y-116563644D01*
X164915101Y-116569019D01*
X164925610Y-116596482D01*
X164997039Y-116739339D01*
X165004967Y-116751934D01*
X165006483Y-116755593D01*
X165009862Y-116759710D01*
X165012704Y-116764225D01*
X165015698Y-116766821D01*
X165025138Y-116778324D01*
X165026319Y-116779505D01*
X165025137Y-116780476D01*
X164953708Y-116851905D01*
X164944268Y-116863406D01*
X164941275Y-116866003D01*
X164938434Y-116870516D01*
X164935053Y-116874636D01*
X164933537Y-116878295D01*
X164925610Y-116890889D01*
X164854182Y-117033746D01*
X164843672Y-117061210D01*
X164843290Y-117066585D01*
X164841228Y-117071564D01*
X164838346Y-117100828D01*
X164495489Y-117100828D01*
X164495489Y-116100828D01*
X164492607Y-116071564D01*
X164470209Y-116017492D01*
X164428825Y-115976108D01*
X164374753Y-115953710D01*
X164316225Y-115953710D01*
X164262153Y-115976108D01*
X164220769Y-116017492D01*
X164198371Y-116071564D01*
X164195489Y-116100828D01*
X164195489Y-117279703D01*
X164150781Y-117369117D01*
X164113778Y-117406121D01*
X164024365Y-117450828D01*
X163809470Y-117450828D01*
X163720056Y-117406121D01*
X163683051Y-117369116D01*
X163638346Y-117279704D01*
X163638346Y-116100828D01*
X163635464Y-116071564D01*
X163613066Y-116017492D01*
X163571682Y-115976108D01*
X163517610Y-115953710D01*
X163459082Y-115953710D01*
X163405010Y-115976108D01*
X163363626Y-116017492D01*
X163341228Y-116071564D01*
X163338346Y-116100828D01*
X162691845Y-116100828D01*
X162688398Y-116095083D01*
X162670870Y-116071472D01*
X162664947Y-116067083D01*
X162660559Y-116061161D01*
X162636949Y-116043633D01*
X162279805Y-115829347D01*
X162263258Y-115821511D01*
X162260179Y-115819449D01*
X162256605Y-115818360D01*
X162253229Y-115816762D01*
X162249562Y-115816216D01*
X162232049Y-115810884D01*
X161874906Y-115739455D01*
X161845645Y-115736542D01*
X161845488Y-115736573D01*
X161845331Y-115736542D01*
X161816071Y-115739455D01*
X161458927Y-115810884D01*
X161441413Y-115816216D01*
X161437747Y-115816762D01*
X161434370Y-115818361D01*
X161430797Y-115819449D01*
X161427718Y-115821510D01*
X161411170Y-115829347D01*
X161054028Y-116043633D01*
X161030418Y-116061161D01*
X161026029Y-116067083D01*
X161020107Y-116071472D01*
X161002579Y-116095082D01*
X160788293Y-116452226D01*
X160780457Y-116468772D01*
X160778395Y-116471852D01*
X160777306Y-116475425D01*
X160775708Y-116478802D01*
X160775162Y-116482468D01*
X160769830Y-116499982D01*
X160698401Y-116857124D01*
X160695488Y-116886385D01*
X160352631Y-116886385D01*
X160352631Y-116100828D01*
X160349749Y-116071564D01*
X160327351Y-116017492D01*
X160285967Y-115976108D01*
X160231895Y-115953710D01*
X160173367Y-115953710D01*
X160119295Y-115976108D01*
X160077911Y-116017492D01*
X160055513Y-116071564D01*
X160052631Y-116100828D01*
X160052631Y-116595839D01*
X159451554Y-115994762D01*
X159428823Y-115976107D01*
X159374751Y-115953710D01*
X159316225Y-115953710D01*
X159262153Y-115976107D01*
X159220767Y-116017493D01*
X159198370Y-116071565D01*
X159198370Y-116130091D01*
X159220767Y-116184163D01*
X159239422Y-116206894D01*
X159790288Y-116757760D01*
X159225488Y-117510828D01*
X159210235Y-117535968D01*
X159195710Y-117592665D01*
X158852631Y-117592665D01*
X158852631Y-116100828D01*
X158849749Y-116071564D01*
X158827351Y-116017492D01*
X158785967Y-115976108D01*
X158731895Y-115953710D01*
X158673367Y-115953710D01*
X158619295Y-115976108D01*
X158577911Y-116017492D01*
X158555513Y-116071564D01*
X158552631Y-116100828D01*
X158552631Y-117450828D01*
X157988345Y-117450828D01*
X157959081Y-117453710D01*
X157905009Y-117476108D01*
X157863625Y-117517492D01*
X157841227Y-117571564D01*
X157495488Y-117571564D01*
X157495488Y-117279094D01*
X157528718Y-117212631D01*
X157626855Y-117163564D01*
X157631746Y-117160484D01*
X157634056Y-117159715D01*
X157636931Y-117157221D01*
X157651741Y-117147899D01*
X157664063Y-117133690D01*
X157678272Y-117121368D01*
X157683066Y-117111779D01*
X157690087Y-117103684D01*
X157696034Y-117085842D01*
X157704446Y-117069019D01*
X157705205Y-117058329D01*
X157708595Y-117048162D01*
X157707261Y-117029398D01*
X157708595Y-117010639D01*
X157705206Y-117000474D01*
X157704447Y-116989782D01*
X157696032Y-116972953D01*
X157690087Y-116955116D01*
X157683067Y-116947022D01*
X157678273Y-116937433D01*
X157664062Y-116925108D01*
X157651741Y-116910901D01*
X157636934Y-116901580D01*
X157634058Y-116899086D01*
X157631747Y-116898315D01*
X157626855Y-116895236D01*
X157528719Y-116846167D01*
X157495488Y-116779704D01*
X157495488Y-116100828D01*
X157492606Y-116071564D01*
X157490542Y-116066583D01*
X157490161Y-116061209D01*
X157479652Y-116033745D01*
X157408223Y-115890889D01*
X157405142Y-115885994D01*
X157404373Y-115883687D01*
X157401880Y-115880812D01*
X157392558Y-115866003D01*
X157378348Y-115853679D01*
X157366027Y-115839472D01*
X157351221Y-115830152D01*
X157348343Y-115827656D01*
X157346031Y-115826885D01*
X157341141Y-115823807D01*
X157198284Y-115752378D01*
X157170821Y-115741869D01*
X157165446Y-115741487D01*
X157160466Y-115739424D01*
X157131202Y-115736542D01*
X157059773Y-115736542D01*
X157030509Y-115739424D01*
X156976437Y-115761822D01*
X156935053Y-115803206D01*
X156912655Y-115857278D01*
X155921177Y-115857278D01*
X155898779Y-115803206D01*
X155857395Y-115761822D01*
X155803323Y-115739424D01*
X155774059Y-115736542D01*
X155702630Y-115736542D01*
X155673366Y-115739424D01*
X155668385Y-115741487D01*
X155663011Y-115741869D01*
X155635547Y-115752378D01*
X155492691Y-115823807D01*
X155487796Y-115826887D01*
X155485489Y-115827657D01*
X155482614Y-115830149D01*
X155467805Y-115839472D01*
X155455481Y-115853681D01*
X155441274Y-115866003D01*
X155431954Y-115880808D01*
X155429458Y-115883687D01*
X155428687Y-115885998D01*
X155425609Y-115890889D01*
X155354181Y-116033746D01*
X155343671Y-116061210D01*
X155343289Y-116066585D01*
X155341227Y-116071564D01*
X155338345Y-116100828D01*
X155338345Y-116779703D01*
X155305113Y-116846167D01*
X155206977Y-116895236D01*
X155202082Y-116898316D01*
X155199775Y-116899086D01*
X155196901Y-116901578D01*
X155182091Y-116910901D01*
X155169764Y-116925113D01*
X155155560Y-116937433D01*
X155150767Y-116947017D01*
X155143744Y-116955116D01*
X155137796Y-116972959D01*
X155129385Y-116989782D01*
X155128625Y-117000473D01*
X155125237Y-117010639D01*
X154958570Y-117010639D01*
X154958570Y-115569875D01*
X166162156Y-115569875D01*
X166162156Y-118488924D01*
G37*
D11*
%TO.P,,-,GND*%
%TO.N,GND*%
X146100000Y-60000000D03*
%TD*%
D12*
%TO.P,SW1,1,A*%
%TO.N,Net-(SW1-A)*%
X135200000Y-113700000D03*
%TO.P,SW1,2,B*%
%TO.N,Net-(BT1--)*%
X132200000Y-113700000D03*
%TO.P,SW1,3,C*%
%TO.N,GND*%
X130700000Y-113700000D03*
%TD*%
D13*
%TO.P,BT1,1,+*%
%TO.N,Net-(BT1-+)*%
X138951945Y-108398207D03*
X154751945Y-108398207D03*
D14*
%TO.P,BT1,2,-*%
%TO.N,Net-(BT1--)*%
X146851945Y-108398207D03*
%TD*%
D15*
%TO.P,D3,1,K*%
%TO.N,Net-(D3-K)*%
X151000000Y-73200000D03*
D16*
%TO.P,D3,2,A*%
%TO.N,Net-(BT1-+)*%
X153540000Y-73200000D03*
%TD*%
D17*
%TO.P,R3,1*%
%TO.N,Net-(D3-K)*%
X150200000Y-81600000D03*
%TO.P,R3,2*%
%TO.N,Net-(D2-K)*%
X148200000Y-81600000D03*
%TD*%
D18*
%TO.P,R2,1*%
%TO.N,Net-(D2-K)*%
X135300000Y-92200000D03*
%TO.P,R2,2*%
%TO.N,Net-(D1-K)*%
X135300000Y-94200000D03*
%TD*%
D15*
%TO.P,D2,1,K*%
%TO.N,Net-(D2-K)*%
X135160000Y-87400000D03*
D16*
%TO.P,D2,2,A*%
%TO.N,Net-(BT1-+)*%
X137700000Y-87400000D03*
%TD*%
D17*
%TO.P,R1,1*%
%TO.N,Net-(D1-K)*%
X164000000Y-112400000D03*
%TO.P,R1,2*%
%TO.N,Net-(SW1-A)*%
X162000000Y-112400000D03*
%TD*%
D15*
%TO.P,D1,1,K*%
%TO.N,Net-(D1-K)*%
X161940000Y-107500000D03*
D16*
%TO.P,D1,2,A*%
%TO.N,Net-(BT1-+)*%
X159400000Y-107500000D03*
%TD*%
D19*
%TO.N,Net-(BT1-+)*%
X140200000Y-94400000D03*
X151600000Y-101000000D03*
%TD*%
D20*
%TO.N,Net-(BT1--)*%
X146851945Y-108398207D02*
X141751945Y-103298207D01*
X141751945Y-103298207D02*
X134901793Y-103298207D01*
X132900000Y-113000000D02*
X132200000Y-113700000D01*
X134901793Y-103298207D02*
X132900000Y-105300000D01*
X132900000Y-105300000D02*
X132900000Y-113000000D01*
%TO.N,Net-(SW1-A)*%
X142099163Y-116699163D02*
X139100000Y-113700000D01*
X139100000Y-113700000D02*
X135200000Y-113700000D01*
X153399163Y-116699163D02*
X142099163Y-116699163D01*
X157698326Y-112400000D02*
X153399163Y-116699163D01*
%TO.N,Net-(BT1-+)*%
X138951945Y-108398207D02*
X138951945Y-110626425D01*
X154751945Y-104151945D02*
X154751945Y-108398207D01*
X155650152Y-107500000D02*
X154751945Y-108398207D01*
X137700000Y-91900000D02*
X140200000Y-94400000D01*
X138951945Y-110626425D02*
X143263464Y-114937944D01*
X153540000Y-81060000D02*
X140200000Y-94400000D01*
X137700000Y-87400000D02*
X137700000Y-91900000D01*
X143263464Y-114937944D02*
X149708065Y-114937944D01*
X153540000Y-73200000D02*
X153540000Y-81060000D01*
X151600000Y-101000000D02*
X154751945Y-104151945D01*
X149708065Y-114937944D02*
X154751945Y-109894064D01*
X159400000Y-107500000D02*
X155650152Y-107500000D01*
X154751945Y-109894064D02*
X154751945Y-108398207D01*
%TO.N,Net-(D1-K)*%
X164000000Y-112400000D02*
X164000000Y-109560000D01*
X164000000Y-109560000D02*
X161940000Y-107500000D01*
X161940000Y-107500000D02*
X150340000Y-95900000D01*
X137000000Y-95900000D02*
X135300000Y-94200000D01*
X150340000Y-95900000D02*
X137000000Y-95900000D01*
%TO.N,Net-(D2-K)*%
X135300000Y-87540000D02*
X135160000Y-87400000D01*
X135160000Y-87400000D02*
X140960000Y-81600000D01*
X135300000Y-92200000D02*
X135300000Y-87540000D01*
X140960000Y-81600000D02*
X148200000Y-81600000D01*
%TO.N,Net-(D3-K)*%
X150200000Y-81600000D02*
X150200000Y-74000000D01*
X150200000Y-74000000D02*
X151000000Y-73200000D01*
%TO.N,Net-(SW1-A)*%
X157698326Y-112400000D02*
X162000000Y-112400000D01*
%TD*%
M02*
