%TF.GenerationSoftware,KiCad,Pcbnew,8.0.4*%
%TF.CreationDate,2024-12-02T20:50:40-07:00*%
%TF.ProjectId,tree,74726565-2e6b-4696-9361-645f70636258,rev?*%
%TF.SameCoordinates,Original*%
%TF.FileFunction,Soldermask,Top*%
%TF.FilePolarity,Negative*%
%FSLAX46Y46*%
G04 Gerber Fmt 4.6, Leading zero omitted, Abs format (unit mm)*
G04 Created by KiCad (PCBNEW 8.0.4) date 2024-12-02 20:50:40*
%MOMM*%
%LPD*%
G01*
G04 APERTURE LIST*
%ADD10C,0.390000*%
%ADD11C,5.000000*%
%ADD12C,0.900000*%
%ADD13R,1.800000X1.800000*%
%ADD14C,1.800000*%
G04 APERTURE END LIST*
D10*
X147400000Y-68100000D02*
X149012556Y-67791311D01*
X148611707Y-69284425D01*
X150751328Y-70691311D01*
X148478072Y-72063016D01*
X148851328Y-73791311D01*
X147378140Y-73402776D01*
X146015123Y-84162275D01*
X144638772Y-73296581D01*
X143212556Y-73894730D01*
X143415126Y-72045650D01*
X141012556Y-70594730D01*
X143281491Y-69301788D01*
X142951328Y-67694730D01*
X144616914Y-68206194D01*
X146012556Y-63294730D01*
X147400000Y-68100000D01*
G36*
X147400000Y-68100000D02*
G01*
X149012556Y-67791311D01*
X148611707Y-69284425D01*
X150751328Y-70691311D01*
X148478072Y-72063016D01*
X148851328Y-73791311D01*
X147378140Y-73402776D01*
X146015123Y-84162275D01*
X144638772Y-73296581D01*
X143212556Y-73894730D01*
X143415126Y-72045650D01*
X141012556Y-70594730D01*
X143281491Y-69301788D01*
X142951328Y-67694730D01*
X144616914Y-68206194D01*
X146012556Y-63294730D01*
X147400000Y-68100000D01*
G37*
D11*
%TO.C,*%
X146100000Y-60000000D03*
%TD*%
D12*
%TO.C,SW1*%
X134450000Y-115460000D03*
X131450000Y-115460000D03*
%TD*%
D13*
%TO.C,D3*%
X151000000Y-73200000D03*
D14*
X153540000Y-73200000D03*
%TD*%
D13*
%TO.C,D2*%
X135160000Y-87400000D03*
D14*
X137700000Y-87400000D03*
%TD*%
D13*
%TO.C,D1*%
X161940000Y-107500000D03*
D14*
X159400000Y-107500000D03*
%TD*%
M02*
