%TF.GenerationSoftware,KiCad,Pcbnew,8.0.4*%
%TF.CreationDate,2024-12-02T20:50:40-07:00*%
%TF.ProjectId,tree,74726565-2e6b-4696-9361-645f70636258,rev?*%
%TF.SameCoordinates,Original*%
%TF.FileFunction,Copper,L1,Top*%
%TF.FilePolarity,Positive*%
%FSLAX46Y46*%
G04 Gerber Fmt 4.6, Leading zero omitted, Abs format (unit mm)*
G04 Created by KiCad (PCBNEW 8.0.4) date 2024-12-02 20:50:40*
%MOMM*%
%LPD*%
G01*
G04 APERTURE LIST*
%TA.AperFunction,Conductor*%
%ADD10C,0.390000*%
%TD*%
%TA.AperFunction,ComponentPad*%
%ADD11C,5.000000*%
%TD*%
%TA.AperFunction,ComponentPad*%
%ADD12R,1.800000X1.800000*%
%TD*%
%TA.AperFunction,ComponentPad*%
%ADD13C,1.800000*%
%TD*%
%TA.AperFunction,ViaPad*%
%ADD14C,0.600000*%
%TD*%
%TA.AperFunction,Conductor*%
%ADD15C,0.200000*%
%TD*%
G04 APERTURE END LIST*
D10*
%TO.N,GND*%
X147412556Y-68094730D02*
X149012556Y-67794730D01*
X148624263Y-69279155D01*
X150712556Y-70694730D01*
X148490628Y-72057746D01*
X148812556Y-73794730D01*
X147390696Y-73397506D01*
X146027679Y-84157005D01*
X144651328Y-73291311D01*
X143112556Y-73894730D01*
X143427682Y-72040380D01*
X141012556Y-70594730D01*
X143294047Y-69296518D01*
X143012556Y-67794730D01*
X144629470Y-68200924D01*
X146012556Y-63294730D01*
X147412556Y-68094730D01*
%TA.AperFunction,Conductor*%
G36*
X147412556Y-68094730D02*
G01*
X149012556Y-67794730D01*
X148624263Y-69279155D01*
X150712556Y-70694730D01*
X148490628Y-72057746D01*
X148812556Y-73794730D01*
X147390696Y-73397506D01*
X146027679Y-84157005D01*
X144651328Y-73291311D01*
X143112556Y-73894730D01*
X143427682Y-72040380D01*
X141012556Y-70594730D01*
X143294047Y-69296518D01*
X143012556Y-67794730D01*
X144629470Y-68200924D01*
X146012556Y-63294730D01*
X147412556Y-68094730D01*
G37*
%TD.AperFunction*%
%TD*%
D11*
%TO.P,,-,GND*%
%TO.N,GND*%
X146100000Y-60000000D03*
%TD*%
D12*
%TO.P,D3,1,K*%
%TO.N,Net-(D3-K)*%
X151000000Y-73200000D03*
D13*
%TO.P,D3,2,A*%
%TO.N,Net-(BT1-+)*%
X153540000Y-73200000D03*
%TD*%
D12*
%TO.P,D2,1,K*%
%TO.N,Net-(D2-K)*%
X135160000Y-87400000D03*
D13*
%TO.P,D2,2,A*%
%TO.N,Net-(BT1-+)*%
X137700000Y-87400000D03*
%TD*%
D12*
%TO.P,D1,1,K*%
%TO.N,Net-(D1-K)*%
X161940000Y-107500000D03*
D13*
%TO.P,D1,2,A*%
%TO.N,Net-(BT1-+)*%
X159400000Y-107500000D03*
%TD*%
D14*
%TO.N,Net-(BT1-+)*%
X140200000Y-94400000D03*
X151600000Y-101000000D03*
%TD*%
D15*
%TO.N,Net-(BT1-+)*%
X146800000Y-101000000D02*
X151600000Y-101000000D01*
X140200000Y-94400000D02*
X146800000Y-101000000D01*
%TD*%
M02*
